<svg xmlns="http://www.w3.org/2000/svg" viewBox="0 0 162.13 47.43"><defs><style>.cls-1{fill:#748cc6;}.cls-2{fill:#fff;}</style></defs><title>appstore</title><g id="Layer_2" data-name="Layer 2"><g id="Layer_1-2" data-name="Layer 1"><rect class="cls-1" width="162.13" height="47.43" rx="6.41" ry="6.41"/><path class="cls-2" d="M36.29,22.68a7,7,0,0,1,3.32-5.86A7.14,7.14,0,0,0,34,13.77c-2.37-.25-4.67,1.42-5.87,1.42S25,13.8,23,13.84a7.51,7.51,0,0,0-6.31,3.85C14,22.41,16,29.36,18.62,33.18c1.31,1.87,2.84,4,4.84,3.88s2.69-1.25,5.05-1.25,3,1.25,5.07,1.2,3.42-1.87,4.68-3.76a15.57,15.57,0,0,0,2.15-4.37A6.73,6.73,0,0,1,36.29,22.68Z"/><path class="cls-2" d="M32.43,11.26A6.85,6.85,0,0,0,34,6.34a7,7,0,0,0-4.53,2.34,6.5,6.5,0,0,0-1.61,4.74A5.75,5.75,0,0,0,32.43,11.26Z"/><path class="cls-2" d="M64.61,36.79H61.88l-1.5-4.71H55.17l-1.43,4.71H51.08l5.16-16h3.19Zm-4.68-6.68-1.36-4.19c-.14-.42-.41-1.43-.81-3h0c-.16.69-.42,1.69-.77,3l-1.33,4.19Z"/><path class="cls-2" d="M77.88,30.87a6.57,6.57,0,0,1-1.59,4.66,4.65,4.65,0,0,1-3.55,1.52,3.53,3.53,0,0,1-3.28-1.64h0V41.5H66.85V29c0-1.24,0-2.5-.1-3.81H69l.14,1.84h0a4.57,4.57,0,0,1,7.31-.46A6.34,6.34,0,0,1,77.88,30.87Zm-2.61.1a4.76,4.76,0,0,0-.77-2.79A2.62,2.62,0,0,0,72.27,27a2.67,2.67,0,0,0-1.73.63,3,3,0,0,0-1,1.66,3.15,3.15,0,0,0-.11.78V32a3,3,0,0,0,.77,2.12,2.55,2.55,0,0,0,2,.87,2.65,2.65,0,0,0,2.26-1.11A4.93,4.93,0,0,0,75.27,31Z"/><path class="cls-2" d="M91.17,30.87a6.57,6.57,0,0,1-1.59,4.66A4.63,4.63,0,0,1,86,37.05a3.52,3.52,0,0,1-3.28-1.64h-.05V41.5H80.14V29c0-1.24,0-2.5-.09-3.81H82.3l.15,1.84h0a4.57,4.57,0,0,1,7.31-.46A6.39,6.39,0,0,1,91.17,30.87Zm-2.61.1a4.83,4.83,0,0,0-.76-2.79,2.73,2.73,0,0,0-4-.51,2.89,2.89,0,0,0-1,1.66,3.23,3.23,0,0,0-.12.78V32a3.07,3.07,0,0,0,.77,2.12,2.55,2.55,0,0,0,2,.87,2.63,2.63,0,0,0,2.26-1.11A4.93,4.93,0,0,0,88.56,31Z"/><path class="cls-2" d="M106,32.3a4.29,4.29,0,0,1-1.43,3.33,6.31,6.31,0,0,1-4.36,1.4,7.63,7.63,0,0,1-4.16-1l.6-2.14a7,7,0,0,0,3.71,1,3.48,3.48,0,0,0,2.26-.65,2.14,2.14,0,0,0,.81-1.75,2.2,2.2,0,0,0-.67-1.64,6.06,6.06,0,0,0-2.21-1.24q-4.22-1.57-4.21-4.6a4.05,4.05,0,0,1,1.48-3.24,5.82,5.82,0,0,1,3.92-1.26,7.76,7.76,0,0,1,3.64.76l-.64,2.09a6.36,6.36,0,0,0-3.07-.73,3.15,3.15,0,0,0-2.12.66A1.93,1.93,0,0,0,99,24.76a2,2,0,0,0,.74,1.57A8.19,8.19,0,0,0,102,27.57a7.87,7.87,0,0,1,3,1.95A4.07,4.07,0,0,1,106,32.3Z"/><path class="cls-2" d="M114.53,27.16H111.7v5.61c0,1.43.5,2.14,1.5,2.14a4.63,4.63,0,0,0,1.14-.12l.07,2a5.84,5.84,0,0,1-2,.29A3.08,3.08,0,0,1,110,36.1a4.55,4.55,0,0,1-.86-3.11V27.16h-1.68V25.23h1.68V23.12l2.53-.76v2.87h2.83Z"/><path class="cls-2" d="M127.3,30.92a6.34,6.34,0,0,1-1.52,4.37,5.44,5.44,0,0,1-4.24,1.76,5.16,5.16,0,0,1-4.05-1.68A6.15,6.15,0,0,1,116,31.11a6.32,6.32,0,0,1,1.55-4.4,5.41,5.41,0,0,1,4.2-1.71,5.26,5.26,0,0,1,4.09,1.69A6,6,0,0,1,127.3,30.92Zm-2.67.08a5.12,5.12,0,0,0-.69-2.74,2.52,2.52,0,0,0-2.3-1.38,2.59,2.59,0,0,0-2.36,1.38,5.29,5.29,0,0,0-.68,2.79,5.18,5.18,0,0,0,.68,2.74,2.61,2.61,0,0,0,2.34,1.38,2.56,2.56,0,0,0,2.3-1.4A5.17,5.17,0,0,0,124.63,31Z"/><path class="cls-2" d="M135.64,27.49a5.07,5.07,0,0,0-.8-.07,2.42,2.42,0,0,0-2.1,1,3.82,3.82,0,0,0-.64,2.28v6.06h-2.57l0-7.92c0-1.33,0-2.54-.1-3.63h2.24l.09,2.21h.07a3.93,3.93,0,0,1,1.29-1.83A3.05,3.05,0,0,1,135,25a4.14,4.14,0,0,1,.64,0Z"/><path class="cls-2" d="M147.13,30.47a6.35,6.35,0,0,1-.09,1.16h-7.71a3.34,3.34,0,0,0,1.12,2.62,3.81,3.81,0,0,0,2.52.81,8.45,8.45,0,0,0,3.12-.55l.4,1.78a9.63,9.63,0,0,1-3.88.72,5.62,5.62,0,0,1-4.22-1.58,5.86,5.86,0,0,1-1.53-4.25,6.59,6.59,0,0,1,1.43-4.35,4.89,4.89,0,0,1,4-1.85,4.3,4.3,0,0,1,3.78,1.85A6.25,6.25,0,0,1,147.13,30.47Zm-2.45-.67a3.43,3.43,0,0,0-.5-2,2.23,2.23,0,0,0-2-1.07,2.43,2.43,0,0,0-2,1,3.84,3.84,0,0,0-.76,2Z"/><path class="cls-2" d="M59.08,10.9a3.94,3.94,0,0,1-1.28,3.2,5,5,0,0,1-3.35,1A14.11,14.11,0,0,1,52.6,15V7.26a13.58,13.58,0,0,1,2.18-.17A4.68,4.68,0,0,1,57.9,8,3.66,3.66,0,0,1,59.08,10.9Zm-1.33,0A2.91,2.91,0,0,0,57,8.82a2.89,2.89,0,0,0-2.14-.73,5,5,0,0,0-1,.08v5.89a7.84,7.84,0,0,0,.85,0,3,3,0,0,0,2.24-.8A3.25,3.25,0,0,0,57.75,10.94Z"/><path class="cls-2" d="M66.13,12.14a3.11,3.11,0,0,1-.74,2.15,2.68,2.68,0,0,1-2.08.87,2.57,2.57,0,0,1-2-.83,3.05,3.05,0,0,1-.74-2.09,3.11,3.11,0,0,1,.77-2.17,2.65,2.65,0,0,1,2.06-.84,2.62,2.62,0,0,1,2,.83A3,3,0,0,1,66.13,12.14Zm-1.3,0a2.65,2.65,0,0,0-.34-1.35,1.31,1.31,0,0,0-2.29,0,2.62,2.62,0,0,0-.34,1.38,2.5,2.5,0,0,0,.34,1.34,1.28,1.28,0,0,0,2.27,0A2.49,2.49,0,0,0,64.83,12.18Z"/><path class="cls-2" d="M75.6,9.35,73.82,15H72.66l-.73-2.47a18.14,18.14,0,0,1-.46-1.83h0A12.9,12.9,0,0,1,71,12.56L70.21,15H69L67.37,9.35h1.3l.64,2.7c.15.64.28,1.25.38,1.82h0c.09-.47.25-1.08.47-1.81L71,9.35h1L72.79,12c.19.65.34,1.27.46,1.87h0c.09-.58.22-1.2.39-1.87l.69-2.65Z"/><path class="cls-2" d="M82.14,15H80.88V11.78c0-1-.38-1.51-1.15-1.51a1.14,1.14,0,0,0-.91.42,1.46,1.46,0,0,0-.35,1V15H77.21V11c0-.5,0-1,0-1.62h1.11l.06.88h0A1.76,1.76,0,0,1,79,9.55a2.16,2.16,0,0,1,1.14-.32,1.84,1.84,0,0,1,1.33.51,2.53,2.53,0,0,1,.65,1.89Z"/><path class="cls-2" d="M85.62,15H84.36V6.74h1.26Z"/><path class="cls-2" d="M93.05,12.14a3.11,3.11,0,0,1-.75,2.15,2.65,2.65,0,0,1-2.08.87,2.56,2.56,0,0,1-2-.83,3.05,3.05,0,0,1-.74-2.09,3.11,3.11,0,0,1,.77-2.17,2.9,2.9,0,0,1,4.07,0A3,3,0,0,1,93.05,12.14Zm-1.31,0a2.56,2.56,0,0,0-.34-1.35,1.23,1.23,0,0,0-1.13-.67,1.27,1.27,0,0,0-1.16.67,2.71,2.71,0,0,0-.33,1.38,2.59,2.59,0,0,0,.33,1.34,1.28,1.28,0,0,0,1.15.68,1.26,1.26,0,0,0,1.13-.69A2.48,2.48,0,0,0,91.74,12.18Z"/><path class="cls-2" d="M99.16,15H98l-.1-.66h0a2,2,0,0,1-1.66.79,1.73,1.73,0,0,1-1.3-.52,1.63,1.63,0,0,1-.44-1.15,1.76,1.76,0,0,1,.87-1.59,4.48,4.48,0,0,1,2.45-.54v-.11c0-.74-.39-1.12-1.18-1.12a2.64,2.64,0,0,0-1.48.42l-.26-.83a3.71,3.71,0,0,1,1.95-.49c1.48,0,2.23.79,2.23,2.35v2.09A9.62,9.62,0,0,0,99.16,15Zm-1.31-1.95V12.2c-1.39,0-2.09.36-2.09,1.14A.87.87,0,0,0,96,14a.89.89,0,0,0,.62.22,1.28,1.28,0,0,0,.77-.26,1.07,1.07,0,0,0,.44-.67A1.38,1.38,0,0,0,97.85,13.08Z"/><path class="cls-2" d="M106.33,15h-1.12l-.06-.91h0a1.9,1.9,0,0,1-1.82,1,2.13,2.13,0,0,1-1.71-.81,3.15,3.15,0,0,1-.68-2.09,3.3,3.3,0,0,1,.74-2.23,2.27,2.27,0,0,1,1.75-.8A1.71,1.71,0,0,1,105,10h0V6.74h1.26V13.5C106.29,14.05,106.3,14.56,106.33,15Zm-1.3-2.4v-.94a2,2,0,0,0,0-.4,1.43,1.43,0,0,0-.46-.77,1.24,1.24,0,0,0-.84-.31,1.29,1.29,0,0,0-1.11.57,2.37,2.37,0,0,0-.41,1.43,2.25,2.25,0,0,0,.39,1.37,1.32,1.32,0,0,0,1.11.56,1.21,1.21,0,0,0,1-.47A1.52,1.52,0,0,0,105,12.63Z"/><path class="cls-2" d="M117.13,12.14a3.11,3.11,0,0,1-.75,2.15,2.65,2.65,0,0,1-2.08.87,2.54,2.54,0,0,1-2-.83,3,3,0,0,1-.74-2.09,3.11,3.11,0,0,1,.76-2.17,2.66,2.66,0,0,1,2.07-.84,2.62,2.62,0,0,1,2,.83A3,3,0,0,1,117.13,12.14Zm-1.31,0a2.56,2.56,0,0,0-.34-1.35,1.23,1.23,0,0,0-1.13-.67,1.27,1.27,0,0,0-1.16.67,2.71,2.71,0,0,0-.34,1.38,2.59,2.59,0,0,0,.34,1.34,1.28,1.28,0,0,0,1.15.68,1.26,1.26,0,0,0,1.13-.69A2.57,2.57,0,0,0,115.82,12.18Z"/><path class="cls-2" d="M123.92,15h-1.27V11.78c0-1-.38-1.51-1.14-1.51a1.12,1.12,0,0,0-.91.42,1.46,1.46,0,0,0-.35,1V15H119V11c0-.5,0-1,0-1.62h1.11l.06.88h0a1.86,1.86,0,0,1,.66-.68,2.13,2.13,0,0,1,1.14-.32,1.82,1.82,0,0,1,1.32.51,2.5,2.5,0,0,1,.66,1.89Z"/><path class="cls-2" d="M132.41,10.3H131v2.75c0,.7.25,1,.74,1a2.28,2.28,0,0,0,.56,0l0,.95a2.71,2.71,0,0,1-1,.14,1.52,1.52,0,0,1-1.17-.45,2.24,2.24,0,0,1-.42-1.53V10.3H129v-1h.83v-1L131,7.94V9.35h1.39v1Z"/><path class="cls-2" d="M139.09,15h-1.26V11.8q0-1.53-1.14-1.53a1.21,1.21,0,0,0-1.21.89,1.44,1.44,0,0,0-.06.45V15h-1.26V6.74h1.26v3.43h0a1.88,1.88,0,0,1,1.7-.94,1.73,1.73,0,0,1,1.3.52,2.55,2.55,0,0,1,.64,1.9Z"/><path class="cls-2" d="M146,11.92a2.94,2.94,0,0,1-.05.57h-3.79a1.69,1.69,0,0,0,.55,1.29,1.9,1.9,0,0,0,1.24.39,4.17,4.17,0,0,0,1.53-.26l.2.87a4.65,4.65,0,0,1-1.91.35,2.77,2.77,0,0,1-2.07-.77,2.89,2.89,0,0,1-.75-2.09,3.26,3.26,0,0,1,.7-2.14,2.43,2.43,0,0,1,2-.91,2.13,2.13,0,0,1,1.86.91A3,3,0,0,1,146,11.92Zm-1.21-.33a1.73,1.73,0,0,0-.24-1,1.11,1.11,0,0,0-1-.52,1.19,1.19,0,0,0-1,.51,1.93,1.93,0,0,0-.38,1Z"/></g></g></svg>