<svg xmlns="http://www.w3.org/2000/svg" xmlns:xlink="http://www.w3.org/1999/xlink" viewBox="0 0 162.13 47.43"><defs><style>.cls-1{fill:#748cc6;}.cls-10,.cls-2,.cls-3{fill:#fff;}.cls-2{stroke:#fff;stroke-miterlimit:10;stroke-width:0.2px;}.cls-4{fill:url(#linear-gradient);}.cls-5{fill:url(#linear-gradient-2);}.cls-6{fill:url(#linear-gradient-3);}.cls-7{fill:url(#linear-gradient-4);}.cls-8{opacity:0.2;}.cls-10,.cls-8,.cls-9{isolation:isolate;}.cls-9{opacity:0.12;}.cls-10{opacity:0.25;}</style><linearGradient id="linear-gradient" x1="24.66" y1="-5326.27" x2="5" y2="-5345.92" gradientTransform="matrix(1, 0, 0, -1, 0, -5314.83)" gradientUnits="userSpaceOnUse"><stop offset="0" stop-color="#00a0ff"/><stop offset="0.01" stop-color="#00a1ff"/><stop offset="0.26" stop-color="#00beff"/><stop offset="0.51" stop-color="#00d2ff"/><stop offset="0.76" stop-color="#00dfff"/><stop offset="1" stop-color="#00e3ff"/></linearGradient><linearGradient id="linear-gradient-2" x1="38.75" y1="-5339.49" x2="10.41" y2="-5339.49" gradientTransform="matrix(1, 0, 0, -1, 0, -5314.83)" gradientUnits="userSpaceOnUse"><stop offset="0" stop-color="#ffe000"/><stop offset="0.41" stop-color="#ffbd00"/><stop offset="0.78" stop-color="orange"/><stop offset="1" stop-color="#ff9c00"/></linearGradient><linearGradient id="linear-gradient-3" x1="28.2" y1="-5342.18" x2="1.55" y2="-5368.83" gradientTransform="matrix(1, 0, 0, -1, 0, -5314.83)" gradientUnits="userSpaceOnUse"><stop offset="0" stop-color="#ff3a44"/><stop offset="1" stop-color="#c31162"/></linearGradient><linearGradient id="linear-gradient-4" x1="7.67" y1="-5316.27" x2="19.58" y2="-5328.17" gradientTransform="matrix(1, 0, 0, -1, 0, -5314.83)" gradientUnits="userSpaceOnUse"><stop offset="0" stop-color="#32a071"/><stop offset="0.07" stop-color="#2da771"/><stop offset="0.48" stop-color="#15cf74"/><stop offset="0.8" stop-color="#06e775"/><stop offset="1" stop-color="#00f076"/></linearGradient></defs><title>playstore</title><g id="Layer_2" data-name="Layer 2"><g id="Layer_1-2" data-name="Layer 1"><rect class="cls-1" width="162.13" height="47.43" rx="6.41" ry="6.41"/><g id="_Group_" data-name="&lt;Group&gt;"><path id="_Compound_Path_" data-name="&lt;Compound Path&gt;" class="cls-2" d="M54.66,13.23a3.16,3.16,0,0,1-.87,2.34,3.38,3.38,0,0,1-2.58,1,3.6,3.6,0,0,1-3.65-3.67,3.62,3.62,0,0,1,3.65-3.67,3.57,3.57,0,0,1,1.44.3,2.81,2.81,0,0,1,1.1.78l-.62.62a2.37,2.37,0,0,0-1.92-.83,2.63,2.63,0,0,0-1.92.78,2.67,2.67,0,0,0-.81,2,2.72,2.72,0,0,0,2.73,2.81,2.64,2.64,0,0,0,2-.79,2.18,2.18,0,0,0,.59-1.42H51.21V12.7h3.4A3.27,3.27,0,0,1,54.66,13.23Z"/><path id="_Compound_Path_2" data-name="&lt;Compound Path&gt;" class="cls-2" d="M60.06,10.29h-3.2v2.23h2.88v.84H56.86v2.23h3.2v.87H56v-7h4.1Z"/><path id="_Compound_Path_3" data-name="&lt;Compound Path&gt;" class="cls-2" d="M63.87,16.46H63V10.29H61V9.43h4.83v.86h-2Z"/><path id="_Compound_Path_4" data-name="&lt;Compound Path&gt;" class="cls-2" d="M69.32,16.46v-7h.9v7Z"/><path id="_Compound_Path_5" data-name="&lt;Compound Path&gt;" class="cls-2" d="M74.23,16.46h-.9V10.29h-2V9.43h4.83v.86h-2Z"/><path id="_Compound_Path_6" data-name="&lt;Compound Path&gt;" class="cls-2" d="M85.33,15.55a3.66,3.66,0,0,1-5.15,0,3.6,3.6,0,0,1-1-2.61,3.58,3.58,0,0,1,1-2.6,3.63,3.63,0,0,1,5.15,0,3.6,3.6,0,0,1,1,2.6A3.61,3.61,0,0,1,85.33,15.55ZM80.85,15a2.69,2.69,0,0,0,3.81,0,2.73,2.73,0,0,0,.79-2,2.73,2.73,0,0,0-.79-2,2.72,2.72,0,0,0-3.81,0,2.76,2.76,0,0,0-.78,2A2.76,2.76,0,0,0,80.85,15Z"/><path id="_Compound_Path_7" data-name="&lt;Compound Path&gt;" class="cls-2" d="M87.63,16.46v-7h1.1l3.42,5.46h0l0-1.35V9.43h.9v7h-.94l-3.57-5.74h0l0,1.36v4.38Z"/></g><path id="_Compound_Path_8" data-name="&lt;Compound Path&gt;" class="cls-3" d="M78.92,26.7a5,5,0,1,0,5,5A4.92,4.92,0,0,0,78.92,26.7Zm0,8a3,3,0,1,1,2.81-3A2.88,2.88,0,0,1,78.92,34.7ZM68,26.7a5,5,0,1,0,5,5A4.91,4.91,0,0,0,68,26.7Zm0,8a3,3,0,1,1,2.81-3A2.89,2.89,0,0,1,68,34.7ZM55,28.23v2.12H60.1A4.47,4.47,0,0,1,59,33,5.21,5.21,0,0,1,55,34.55a5.62,5.62,0,0,1,0-11.24,5.37,5.37,0,0,1,3.81,1.51l1.49-1.49A7.35,7.35,0,0,0,55,21.19a7.74,7.74,0,1,0,0,15.48,7.1,7.1,0,0,0,5.4-2.17,7,7,0,0,0,1.83-4.95,6.53,6.53,0,0,0-.12-1.32Zm53.06,1.64a4.63,4.63,0,0,0-4.26-3.17,4.73,4.73,0,0,0-4.7,5,4.87,4.87,0,0,0,4.94,5,4.94,4.94,0,0,0,4.15-2.21l-1.69-1.13a2.85,2.85,0,0,1-2.46,1.37,2.53,2.53,0,0,1-2.41-1.51l6.66-2.75Zm-6.79,1.66a2.73,2.73,0,0,1,2.6-2.9,1.91,1.91,0,0,1,1.85,1.06Zm-5.42,4.83h2.19V21.72H95.89Zm-3.58-8.54h-.08a3.43,3.43,0,0,0-2.62-1.12,5,5,0,0,0,0,10,3.37,3.37,0,0,0,2.62-1.14h.08v.72c0,1.91-1,2.93-2.66,2.93a2.76,2.76,0,0,1-2.51-1.78l-1.9.79a4.73,4.73,0,0,0,4.41,3c2.57,0,4.74-1.51,4.74-5.19V27H92.31ZM89.8,34.7a3,3,0,0,1,0-6,2.8,2.8,0,0,1,2.66,3A2.78,2.78,0,0,1,89.8,34.7Zm28.55-13h-5.23V36.36h2.18V30.82h3a4.56,4.56,0,1,0,0-9.1Zm.06,7.06H115.3v-5h3.11a2.51,2.51,0,1,1,0,5Zm13.51-2.1a4.08,4.08,0,0,0-3.9,2.24l1.94.81a2.06,2.06,0,0,1,2-1.08,2.11,2.11,0,0,1,2.3,1.89v.15a4.78,4.78,0,0,0-2.28-.57c-2.09,0-4.22,1.15-4.22,3.3a3.39,3.39,0,0,0,3.64,3.22,3.09,3.09,0,0,0,2.79-1.43h.07v1.13h2.11V30.73C136.36,28.13,134.42,26.68,131.92,26.68Zm-.27,8c-.71,0-1.71-.36-1.71-1.24,0-1.13,1.24-1.57,2.31-1.57a3.92,3.92,0,0,1,2,.49A2.65,2.65,0,0,1,131.65,34.7ZM144,27l-2.5,6.34h-.08L138.87,27h-2.36l3.9,8.87-2.22,4.93h2.28l6-13.8Zm-19.68,9.36h2.19V21.72h-2.19Z"/><g id="_Group_2" data-name="&lt;Group&gt;"><path id="_Path_" data-name="&lt;Path&gt;" class="cls-4" d="M11.35,10.06a2.34,2.34,0,0,0-.54,1.64V37.6a2.35,2.35,0,0,0,.54,1.65l.09.08,14.5-14.5v-.35L11.44,10Z"/><path id="_Path_2" data-name="&lt;Path&gt;" class="cls-5" d="M30.78,29.66l-4.84-4.83v-.35l4.84-4.83.11.06L36.62,23c1.64.93,1.64,2.45,0,3.39L30.89,29.6Z"/><path id="_Path_3" data-name="&lt;Path&gt;" class="cls-6" d="M30.89,29.6l-4.95-5L11.35,39.25a1.9,1.9,0,0,0,2.43.07L30.89,29.6"/><path id="_Path_4" data-name="&lt;Path&gt;" class="cls-7" d="M30.89,19.71,13.78,10a1.9,1.9,0,0,0-2.43.07L25.94,24.65Z"/><g id="_Group_3" data-name="&lt;Group&gt;"><path id="_Path_5" data-name="&lt;Path&gt;" class="cls-8" d="M30.78,29.49l-17,9.66a1.94,1.94,0,0,1-2.34,0h0l-.09.09h0l.09.08h0a1.93,1.93,0,0,0,2.34,0L30.89,29.6Z"/><path id="_Path_6" data-name="&lt;Path&gt;" class="cls-9" d="M11.35,39.08a2.35,2.35,0,0,1-.54-1.65v.17a2.35,2.35,0,0,0,.54,1.65l.09-.09Z"/></g><path id="_Path_7" data-name="&lt;Path&gt;" class="cls-9" d="M36.62,26.17l-5.84,3.32.11.11,5.73-3.26a2,2,0,0,0,1.23-1.69h0A2.18,2.18,0,0,1,36.62,26.17Z"/><path id="_Path_8" data-name="&lt;Path&gt;" class="cls-10" d="M13.78,10.16l22.84,13a2.22,2.22,0,0,1,1.23,1.52h0A2.06,2.06,0,0,0,36.62,23L13.78,10c-1.63-.93-3-.16-3,1.71v.18C10.81,10,12.15,9.23,13.78,10.16Z"/></g></g></g></svg>