<svg id="Layer_1" data-name="Layer 1" xmlns="http://www.w3.org/2000/svg" xmlns:xlink="http://www.w3.org/1999/xlink" viewBox="0 0 855.9 900"><defs><style>.cls-1{fill:none;}.cls-2{clip-path:url(#clip-path);}.cls-3{clip-path:url(#clip-path-2);}.cls-4{fill:url(#linear-gradient);}.cls-5{clip-path:url(#clip-path-3);}.cls-6{fill:url(#linear-gradient-2);}.cls-7{clip-path:url(#clip-path-4);}.cls-8{fill:url(#linear-gradient-3);}.cls-9{clip-path:url(#clip-path-5);}.cls-10{fill:url(#linear-gradient-4);}</style><clipPath id="clip-path"><rect class="cls-1" x="1170.82" y="-56" width="1440" height="4162.26"/></clipPath><clipPath id="clip-path-2"><rect class="cls-1" x="1170.82" y="-56" width="1440" height="902"/></clipPath><linearGradient id="linear-gradient" x1="1170.82" y1="4106.26" x2="1171.82" y2="4106.26" gradientTransform="matrix(-1767.33, 0, 0, 1767.33, 2072006.43, -7256720.69)" gradientUnits="userSpaceOnUse"><stop offset="0" stop-color="#7acae4"/><stop offset="0.12" stop-color="#77afd7"/><stop offset="0.27" stop-color="#7596cb"/><stop offset="0.36" stop-color="#748cc7"/><stop offset="0.36" stop-color="#738bc6"/><stop offset="0.65" stop-color="#4e6394"/><stop offset="0.8" stop-color="#3f5481"/><stop offset="1" stop-color="#3f5481"/></linearGradient><clipPath id="clip-path-3"><path class="cls-1" d="M1439.76-54a231.75,231.75,0,0,0-17,24.52l-210,346.64v0.5c-13,24.16-20.74,54.45-20.74,87.44,0,33.36,7.95,64,21.16,88.25L1306.3,706c25.49,56.4,54,102.59,85.39,140H2023c0.41-14.12-3-28.93-9.84-44L1958,685.57c-22.46-44.93-57.2-53.12-108.28-40.85-12.25,2-24.52,4.08-32.68,4.08-40.87,0-85.8-8.17-128.71-79.68L1586.2,387.29,1837.5,37.94c24.75-35,33.46-66.79,27.75-91.94H1439.76Z"/></clipPath><linearGradient id="linear-gradient-2" x1="1170.82" y1="4106.24" x2="1171.82" y2="4106.24" gradientTransform="matrix(0, 1120.01, 1120.01, 0, -4597439.78, -1311321.38)" gradientUnits="userSpaceOnUse"><stop offset="0" stop-color="#fff"/><stop offset="0.24" stop-color="#f4f3f3"/><stop offset="0.5" stop-color="#e2e1e1"/><stop offset="0.75" stop-color="#c4c4c3"/><stop offset="1" stop-color="#a2a2a1"/></linearGradient><clipPath id="clip-path-4"><path class="cls-1" d="M272.61,0a231.75,231.75,0,0,0-17,24.52l-210,346.64v0.5c-13,24.16-20.74,54.45-20.74,87.44,0,33.36,7.95,64,21.16,88.25L139.15,760c25.49,56.4,54,102.59,85.39,140H855.87c0.41-14.12-3-28.93-9.84-44L790.88,739.57c-22.46-44.93-57.2-53.12-108.28-40.85-12.25,2-24.52,4.08-32.68,4.08-40.87,0-85.8-8.17-128.71-79.68L419.05,441.29,670.35,91.94C695.1,56.94,703.8,25.15,698.1,0H272.61Z"/></clipPath><linearGradient id="linear-gradient-3" x1="1170.3" y1="4105.33" x2="1171.3" y2="4105.33" gradientTransform="matrix(0, 1120.01, 1120.01, 0, -4597588.01, -1310695.57)" xlink:href="#linear-gradient-2"/><clipPath id="clip-path-5"><path class="cls-1" d="M272.61,0a231.9,231.9,0,0,0-17,24.52L157,187.29c32.26,125.82,175.73,62,262.06,254L670.35,91.94C695.1,56.94,703.8,25.15,698.1,0H272.61Z"/></clipPath><linearGradient id="linear-gradient-4" x1="1172.02" y1="4105.64" x2="1173.02" y2="4105.64" gradientTransform="matrix(-836.98, 0, 0, 836.98, 981828.52, -3436111.15)" xlink:href="#linear-gradient-2"/></defs><title>kashta_icon</title><g class="cls-2"><g class="cls-3"><rect class="cls-4" x="1062.79" y="-433.02" width="1656.04" height="1656.04" transform="translate(274.5 1452.7) rotate(-45)"/></g><g class="cls-5"><rect class="cls-6" x="1016.84" y="-205.82" width="1181.74" height="1203.64" transform="translate(34 910.76) rotate(-31.95)"/></g></g><g class="cls-7"><rect class="cls-8" x="-150.31" y="-151.82" width="1181.74" height="1203.64" transform="translate(-171.39 301.31) rotate(-31.95)"/></g><g class="cls-9"><rect class="cls-10" x="81.04" y="-112.98" width="698.72" height="667.26" transform="translate(-50.88 268.57) rotate(-32.83)"/></g></svg>