<svg xmlns="http://www.w3.org/2000/svg" viewBox="0 0 20.78 23"><defs><style>.cls-1{fill:#ccc;}</style></defs><title>cancel</title><g id="Layer_2" data-name="Layer 2"><g id="Layer_1-2" data-name="Layer 1"><rect class="cls-1" x="7.42" y="2.23" width="6.68" height="0.74"/><path class="cls-1" d="M18.18,23H2.6A2.6,2.6,0,0,1,0,20.41V4.82A2.6,2.6,0,0,1,2.6,2.23H5.19V3H2.6A1.85,1.85,0,0,0,.74,4.82V20.41A1.85,1.85,0,0,0,2.6,22.26H18.18A1.86,1.86,0,0,0,20,20.41V4.82A1.77,1.77,0,0,0,18.37,3h-2V2.23h2a2.51,2.51,0,0,1,2.41,2.59V20.41A2.6,2.6,0,0,1,18.18,23Z"/><path class="cls-1" d="M5.94,5.94A1.71,1.71,0,0,1,4.45,4.08V1.48a1.49,1.49,0,0,1,3,0v2.6A1.71,1.71,0,0,1,5.94,5.94Zm0-5.2a.75.75,0,0,0-.75.74v2.6c0,.6.34,1.11.75,1.11s.74-.51.74-1.11V1.48A.74.74,0,0,0,5.94.74Z"/><path class="cls-1" d="M14.84,5.94a1.71,1.71,0,0,1-1.48-1.86V1.48a1.49,1.49,0,0,1,3,0v2.6A1.71,1.71,0,0,1,14.84,5.94Zm0-5.2a.74.74,0,0,0-.74.74v2.6c0,.6.34,1.11.74,1.11s.74-.51.74-1.11V1.48A.74.74,0,0,0,14.84.74Z"/><rect class="cls-1" x="0.74" y="8.16" width="20.04" height="0.74"/><path class="cls-1" d="M15,20.41a.4.4,0,0,1-.27-.11L5.49,11A.37.37,0,0,1,6,10.5l9.28,9.27a.39.39,0,0,1,0,.53A.38.38,0,0,1,15,20.41Z"/><path class="cls-1" d="M5.75,20.41a.38.38,0,0,1-.26-.11.37.37,0,0,1,0-.53l9.27-9.27a.37.37,0,0,1,.53,0,.37.37,0,0,1,0,.52L6,20.3A.36.36,0,0,1,5.75,20.41Z"/></g></g></svg>