<svg xmlns="http://www.w3.org/2000/svg" xmlns:xlink="http://www.w3.org/1999/xlink" viewBox="0 0 167.55 45.11"><defs><style>.cls-1{fill:none;}.cls-2{fill:#3e5380;}.cls-3{fill:url(#linear-gradient);}.cls-4{fill:url(#linear-gradient-2);}.cls-5{clip-path:url(#clip-path);}.cls-6{fill:url(#linear-gradient-3);}.cls-7{clip-path:url(#clip-path-2);}.cls-8{fill:url(#linear-gradient-4);}</style><linearGradient id="linear-gradient" x1="11.6" y1="-1.23" x2="11.6" y2="42.41" gradientUnits="userSpaceOnUse"><stop offset="0" stop-color="#7acae4"/><stop offset="0.1" stop-color="#76c3e3"/><stop offset="0.36" stop-color="#748cc6"/><stop offset="0.44" stop-color="#677db4"/><stop offset="0.55" stop-color="#556b9d"/><stop offset="0.68" stop-color="#495d8d"/><stop offset="0.82" stop-color="#415683"/><stop offset="1" stop-color="#3f5380"/></linearGradient><linearGradient id="linear-gradient-2" x1="26.44" y1="16.64" x2="43.71" y2="44.35" gradientUnits="userSpaceOnUse"><stop offset="0" stop-color="#7acae4"/><stop offset="0.5" stop-color="#748cc6"/><stop offset="1" stop-color="#3f5380"/></linearGradient><clipPath id="clip-path"><path class="cls-1" d="M43.83,38.35,42.22,35c-.65-1.31-1.66-1.55-3.15-1.19a7,7,0,0,1-1,.12c-1.2,0-2.51-.24-3.76-2.33l-3-5.3,7.32-10.18c1.73-2.44.78-4.35-2.2-4.35H30.85a4.45,4.45,0,0,0-4.23,2.38L20.5,24.22h0a5.43,5.43,0,0,0-.61,2.55,5.49,5.49,0,0,0,.62,2.58l2.72,6.19c2.8,6.2,6.85,8.16,11.91,8.16a15.34,15.34,0,0,0,7.5-2A2.43,2.43,0,0,0,43.83,38.35Z"/></clipPath><linearGradient id="linear-gradient-3" x1="41.38" y1="11.06" x2="20.88" y2="24.29" xlink:href="#linear-gradient-2"/><clipPath id="clip-path-2"><rect class="cls-1" x="5.46" width="12.27" height="43.06" rx="3.57" ry="3.57"/></clipPath><linearGradient id="linear-gradient-4" x1="9.12" y1="9.36" x2="9.12" y2="45.93" xlink:href="#linear-gradient-2"/></defs><title>color-logo</title><g id="Layer_2" data-name="Layer 2"><g id="Layer_1-2" data-name="Layer 1"><path class="cls-2" d="M64.2,35l-5-6.08V37.7a.58.58,0,0,1-.62.63h-.63a.56.56,0,0,1-.62-.63V12.46a.57.57,0,0,1,.62-.62h.63a.56.56,0,0,1,.62.62V28.18L67,20.45a.86.86,0,0,1,.73-.33h.92c.52,0,.7.36.37.73l-7.87,7.77L65.74,34c1.14,1.36,2.54,3,4.3,3A5,5,0,0,0,72,36.53a.35.35,0,0,1,.55.15l.33.62c.11.26,0,.55-.4.77a5.72,5.72,0,0,1-2.58.66C67.06,38.73,65.33,36.31,64.2,35Z"/><path class="cls-2" d="M73.5,29.2c0-5.16,3.42-9.49,9.19-9.49a8.38,8.38,0,0,1,7.9,4.84V20.74a.56.56,0,0,1,.59-.62h.66a.56.56,0,0,1,.63.62v17a.58.58,0,0,1-.63.63h-.66a.55.55,0,0,1-.59-.63V33.89a8.29,8.29,0,0,1-7.83,4.84C77.1,38.73,73.5,34.52,73.5,29.2Zm17.13,0a7.5,7.5,0,0,0-7.76-7.8c-4.78,0-7.5,3.55-7.5,7.8s2.83,7.88,7.54,7.88A7.51,7.51,0,0,0,90.63,29.2Z"/><path class="cls-2" d="M97.21,35.47a.51.51,0,0,1,.37-.77l.55-.18c.33-.11.55,0,.77.33a5.08,5.08,0,0,0,4.49,2.27c2.28,0,4.23-1.39,4.23-3.52,0-1.54-1-2.64-2.91-3.26L102,29.46c-2.31-.7-4.19-2.05-4.19-4.65s2-5.1,5.63-5.1a5.46,5.46,0,0,1,5,2.94c.18.4,0,.66-.41.77l-.47.14a.62.62,0,0,1-.78-.33,3.82,3.82,0,0,0-3.31-1.87,3.55,3.55,0,0,0-3.86,3.41c0,1.83,1.51,2.71,3,3.15l2.79.88c3,.92,4.12,2.75,4.12,4.8,0,3.19-2.83,5.13-6.07,5.13A6.74,6.74,0,0,1,97.21,35.47Z"/><path class="cls-2" d="M114.05,37.7V12.46a.58.58,0,0,1,.63-.62h.62a.57.57,0,0,1,.63.62v11.8a7.12,7.12,0,0,1,6.65-4.55c3.82,0,7.57,2,7.57,8.18V37.7a.58.58,0,0,1-.62.63h-.66a.55.55,0,0,1-.59-.63V27.89c0-5.06-3-6.49-5.77-6.49-2.17,0-6.47,1.58-6.58,7.62V37.7a.57.57,0,0,1-.63.63h-.62A.57.57,0,0,1,114.05,37.7Z"/><path class="cls-2" d="M136.55,32.72V21.66h-2.83a.37.37,0,0,1-.4-.41v-.73a.36.36,0,0,1,.4-.4h2.83l.41-5.28a.52.52,0,0,1,.55-.51h.33c.37,0,.55.18.55.51v5.28H144c.29,0,.4.14.4.4v.73c0,.26-.11.41-.4.41h-5.63V32.83c0,3.48,1.65,4.25,3.27,4.25a2.87,2.87,0,0,0,3.09-2.89,3.12,3.12,0,0,0-.07-.66c-.08-.3,0-.44.33-.44h.84a.45.45,0,0,1,.48.33,5,5,0,0,1,.11.95c0,2.46-1.73,4.36-4.81,4.36C139.13,38.73,136.55,37.63,136.55,32.72Z"/><path class="cls-2" d="M148.57,29.2c0-5.16,3.42-9.49,9.2-9.49a8.38,8.38,0,0,1,7.9,4.84V20.74a.56.56,0,0,1,.59-.62h.66a.56.56,0,0,1,.63.62v17a.58.58,0,0,1-.63.63h-.66a.55.55,0,0,1-.59-.63V33.89a8.3,8.3,0,0,1-7.83,4.84C152.18,38.73,148.57,34.52,148.57,29.2Zm17.14,0A7.5,7.5,0,0,0,158,21.4c-4.78,0-7.5,3.55-7.5,7.8s2.83,7.88,7.54,7.88A7.51,7.51,0,0,0,165.71,29.2Z"/><rect class="cls-3" x="5.46" width="12.27" height="43.06" rx="3.57" ry="3.57"/><path class="cls-4" d="M43.83,38.35,42.22,35c-.65-1.31-1.66-1.55-3.15-1.19a7,7,0,0,1-1,.12c-1.2,0-2.51-.24-3.76-2.33l-3-5.3,7.32-10.18c1.73-2.44.78-4.35-2.2-4.35H30.85a4.45,4.45,0,0,0-4.23,2.38L20.5,24.22h0a5.43,5.43,0,0,0-.61,2.55,5.49,5.49,0,0,0,.62,2.58l2.72,6.19c2.8,6.2,6.85,8.16,11.91,8.16a15.34,15.34,0,0,0,7.5-2A2.43,2.43,0,0,0,43.83,38.35Z"/><g class="cls-5"><path class="cls-6" d="M31.39,26.26c-3.43-7.62-9.94-1.42-7.16-14.15,0,0,1.64-2.43,1.73-2.43l13.85.15,2.13,1.83.22,8.64-3.87,4.09Z"/></g><g class="cls-7"><path class="cls-8" d="M0,6.94c17.45,3.85,8.16,23.34,18.25,23.34V45.11H3.49Z"/></g></g></g></svg>