<?xml version="1.0" encoding="utf-8"?>
<!-- Generator: Adobe Illustrator 22.0.1, SVG Export Plug-In . SVG Version: 6.00 Build 0)  -->
<svg version="1.1" id="Layer_1" xmlns="http://www.w3.org/2000/svg" xmlns:xlink="http://www.w3.org/1999/xlink" x="0px" y="0px"
	 viewBox="0 0 63.4 63.3" style="enable-background:new 0 0 63.4 63.3;" xml:space="preserve">
<style type="text/css">
	.st0{fill:#CCDEFF;}
	.st1{clip-path:url(#SVGID_2_);}
	.st2{clip-path:url(#SVGID_4_);}
</style>
<title>facebook</title>
<g id="Layer_2_1_">
	<g id="Layer_1-2">
		<path class="st0" d="M14,5.4c-14.6,9.7-18.5,29.4-8.7,44c5.3,7.9,13.9,13,23.3,13.9h0.1c0.5,0,1-0.4,1-1c0.1-0.6-0.4-1.1-0.9-1.2
			c-16.1-1.6-27.9-16-26.3-32.1s16-27.9,32.1-26.3s27.9,16,26.3,32.1c-1.2,12-9.6,22-21.2,25.3c-0.6,0.2-0.9,0.8-0.7,1.3
			c0.2,0.6,0.8,0.9,1.3,0.7c3.2-0.9,6.3-2.3,9.1-4.2C64,48.3,67.8,28.6,58,14S28.5-4.4,14,5.4C14,5.4,14,5.4,14,5.4"/>
		<g>
			<defs>
				<path id="SVGID_1_" d="M14,5.4c-14.6,9.7-18.5,29.4-8.7,44c5.3,7.9,13.9,13,23.3,13.9h0.1c0.5,0,1-0.4,1-1
					c0.1-0.6-0.4-1.1-0.9-1.2c-16.1-1.6-27.9-16-26.3-32.1s16-27.9,32.1-26.3s27.9,16,26.3,32.1c-1.2,12-9.6,22-21.2,25.3
					c-0.6,0.2-0.9,0.8-0.7,1.3c0.2,0.6,0.8,0.9,1.3,0.7c3.2-0.9,6.3-2.3,9.1-4.2C64,48.3,67.8,28.6,58,14S28.5-4.4,14,5.4
					C14,5.4,14,5.4,14,5.4"/>
			</defs>
			<clipPath id="SVGID_2_">
				<use xlink:href="#SVGID_1_"  style="overflow:visible;"/>
			</clipPath>
			<g class="st1">
				
					<rect x="-12.6" y="-13" transform="matrix(0.5386 -0.8425 0.8425 0.5386 -12.0204 41.3306)" class="st0" width="88.6" height="89.3"/>
			</g>
		</g>
		<path class="st0" d="M32.3,19.6c-4.4,0-4.5,4.8-4.5,4.8v3.3h-2.4v3.9h2.5v12H33V31.7h4.4l0.7-4H33v-2.5c0-1.4,1.2-1.2,1.2-1.2h3.9
			v-4.3H32.3z"/>
		<g>
			<defs>
				<path id="SVGID_3_" d="M32.3,19.6c-4.4,0-4.5,4.8-4.5,4.8v3.3h-2.4v3.9h2.5v12H33V31.7h4.4l0.7-4H33v-2.5c0-1.4,1.2-1.2,1.2-1.2
					h3.9v-4.3H32.3z"/>
			</defs>
			<clipPath id="SVGID_4_">
				<use xlink:href="#SVGID_3_"  style="overflow:visible;"/>
			</clipPath>
			<g class="st2">
				
					<rect x="18.1" y="20.2" transform="matrix(0.4924 -0.8704 0.8704 0.4924 -11.4486 43.6822)" class="st0" width="27.2" height="22.9"/>
			</g>
		</g>
	</g>
</g>
</svg>
