<?xml version="1.0" encoding="UTF-8"?><!DOCTYPE svg PUBLIC "-//W3C//DTD SVG 1.1//EN" "http://www.w3.org/Graphics/SVG/1.1/DTD/svg11.dtd"><svg xmlns="http://www.w3.org/2000/svg"><defs><style>.cls-1{fill:#748cc6}.cls-2{fill:#fff}</style><style>.cls-1{fill:#748cc6}.cls-10,.cls-2,.cls-3{fill:#fff}.cls-2{stroke:#fff;stroke-miterlimit:10;stroke-width:.2px}.cls-4{fill:url(#linear-gradient)}.cls-5{fill:url(#linear-gradient-2)}.cls-6{fill:url(#linear-gradient-3)}.cls-7{fill:url(#linear-gradient-4)}.cls-8{opacity:.2}.cls-10,.cls-8,.cls-9{isolation:isolate}.cls-9{opacity:.12}.cls-10{opacity:.25}</style><linearGradient id="linear-gradient" x1="24.66" y1="-5326.27" x2="5" y2="-5345.92" gradientTransform="matrix(1 0 0 -1 0 -5314.83)" gradientUnits="userSpaceOnUse"><stop offset="0" stop-color="#00a0ff"/><stop offset=".01" stop-color="#00a1ff"/><stop offset=".26" stop-color="#00beff"/><stop offset=".51" stop-color="#00d2ff"/><stop offset=".76" stop-color="#00dfff"/><stop offset="1" stop-color="#00e3ff"/></linearGradient><linearGradient id="linear-gradient-2" x1="38.75" y1="-5339.49" x2="10.41" y2="-5339.49" gradientTransform="matrix(1 0 0 -1 0 -5314.83)" gradientUnits="userSpaceOnUse"><stop offset="0" stop-color="#ffe000"/><stop offset=".41" stop-color="#ffbd00"/><stop offset=".78" stop-color="orange"/><stop offset="1" stop-color="#ff9c00"/></linearGradient><linearGradient id="linear-gradient-3" x1="28.2" y1="-5342.18" x2="1.55" y2="-5368.83" gradientTransform="matrix(1 0 0 -1 0 -5314.83)" gradientUnits="userSpaceOnUse"><stop offset="0" stop-color="#ff3a44"/><stop offset="1" stop-color="#c31162"/></linearGradient><linearGradient id="linear-gradient-4" x1="7.67" y1="-5316.27" x2="19.58" y2="-5328.17" gradientTransform="matrix(1 0 0 -1 0 -5314.83)" gradientUnits="userSpaceOnUse"><stop offset="0" stop-color="#32a071"/><stop offset=".07" stop-color="#2da771"/><stop offset=".48" stop-color="#15cf74"/><stop offset=".8" stop-color="#06e775"/><stop offset="1" stop-color="#00f076"/></linearGradient></defs><symbol id="appstore" viewBox="0 0 162.13 47.43"><title>appstore</title><g id="Layer_2" data-name="Layer 2"><g id="Layer_1-2" data-name="Layer 1"><rect class="cls-1" width="162.13" height="47.43" rx="6.41" ry="6.41"/><path class="cls-2" d="M36.29 22.68a7 7 0 0 1 3.32-5.86A7.14 7.14 0 0 0 34 13.77c-2.37-.25-4.67 1.42-5.87 1.42S25 13.8 23 13.84a7.51 7.51 0 0 0-6.31 3.85C14 22.41 16 29.36 18.62 33.18c1.31 1.87 2.84 4 4.84 3.88s2.69-1.25 5.05-1.25 3 1.25 5.07 1.2 3.42-1.87 4.68-3.76a15.57 15.57 0 0 0 2.15-4.37 6.73 6.73 0 0 1-4.12-6.2zM32.43 11.26A6.85 6.85 0 0 0 34 6.34a7 7 0 0 0-4.53 2.34 6.5 6.5 0 0 0-1.61 4.74 5.75 5.75 0 0 0 4.57-2.16zM64.61 36.79h-2.73l-1.5-4.71h-5.21l-1.43 4.71h-2.66l5.16-16h3.19zm-4.68-6.68l-1.36-4.19c-.14-.42-.41-1.43-.81-3-.16.69-.42 1.69-.77 3l-1.33 4.19zM77.88 30.87a6.57 6.57 0 0 1-1.59 4.66 4.65 4.65 0 0 1-3.55 1.52 3.53 3.53 0 0 1-3.28-1.64v6.09h-2.61V29c0-1.24 0-2.5-.1-3.81H69l.14 1.84a4.57 4.57 0 0 1 7.31-.46 6.34 6.34 0 0 1 1.43 4.3zm-2.61.1a4.76 4.76 0 0 0-.77-2.79A2.62 2.62 0 0 0 72.27 27a2.67 2.67 0 0 0-1.73.63 3 3 0 0 0-1 1.66 3.15 3.15 0 0 0-.11.78V32a3 3 0 0 0 .77 2.12 2.55 2.55 0 0 0 2 .87 2.65 2.65 0 0 0 2.26-1.11 4.93 4.93 0 0 0 .81-2.88zM91.17 30.87a6.57 6.57 0 0 1-1.59 4.66A4.63 4.63 0 0 1 86 37.05a3.52 3.52 0 0 1-3.28-1.64h-.05v6.09h-2.53V29c0-1.24 0-2.5-.09-3.81h2.25l.15 1.84a4.57 4.57 0 0 1 7.31-.46 6.39 6.39 0 0 1 1.41 4.3zm-2.61.1a4.83 4.83 0 0 0-.76-2.79 2.73 2.73 0 0 0-4-.51 2.89 2.89 0 0 0-1 1.66 3.23 3.23 0 0 0-.12.78V32a3.07 3.07 0 0 0 .77 2.12 2.55 2.55 0 0 0 2 .87 2.63 2.63 0 0 0 2.26-1.11 4.93 4.93 0 0 0 .85-2.88zM106 32.3a4.29 4.29 0 0 1-1.43 3.33 6.31 6.31 0 0 1-4.36 1.4 7.63 7.63 0 0 1-4.16-1l.6-2.14a7 7 0 0 0 3.71 1 3.48 3.48 0 0 0 2.26-.65 2.14 2.14 0 0 0 .81-1.75 2.2 2.2 0 0 0-.67-1.64 6.06 6.06 0 0 0-2.21-1.24q-4.22-1.57-4.21-4.6a4.05 4.05 0 0 1 1.48-3.24 5.82 5.82 0 0 1 3.92-1.26 7.76 7.76 0 0 1 3.64.76l-.64 2.09a6.36 6.36 0 0 0-3.07-.73 3.15 3.15 0 0 0-2.12.66 1.93 1.93 0 0 0-.55 1.47 2 2 0 0 0 .74 1.57 8.19 8.19 0 0 0 2.26 1.24 7.87 7.87 0 0 1 3 1.95 4.07 4.07 0 0 1 1 2.78zM114.53 27.16h-2.83v5.61c0 1.43.5 2.14 1.5 2.14a4.63 4.63 0 0 0 1.14-.12l.07 2a5.84 5.84 0 0 1-2 .29 3.08 3.08 0 0 1-2.41-.98 4.55 4.55 0 0 1-.86-3.11v-5.83h-1.68v-1.93h1.68v-2.11l2.53-.76v2.87h2.83zM127.3 30.92a6.34 6.34 0 0 1-1.52 4.37 5.44 5.44 0 0 1-4.24 1.76 5.16 5.16 0 0 1-4.05-1.68 6.15 6.15 0 0 1-1.49-4.26 6.32 6.32 0 0 1 1.55-4.4 5.41 5.41 0 0 1 4.2-1.71 5.26 5.26 0 0 1 4.09 1.69 6 6 0 0 1 1.46 4.23zm-2.67.08a5.12 5.12 0 0 0-.69-2.74 2.52 2.52 0 0 0-2.3-1.38 2.59 2.59 0 0 0-2.36 1.38 5.29 5.29 0 0 0-.68 2.79 5.18 5.18 0 0 0 .68 2.74 2.61 2.61 0 0 0 2.34 1.38 2.56 2.56 0 0 0 2.3-1.4 5.17 5.17 0 0 0 .71-2.77zM135.64 27.49a5.07 5.07 0 0 0-.8-.07 2.42 2.42 0 0 0-2.1 1 3.82 3.82 0 0 0-.64 2.28v6.06h-2.57v-7.92c0-1.33 0-2.54-.1-3.63h2.24l.09 2.21h.07a3.93 3.93 0 0 1 1.29-1.83A3.05 3.05 0 0 1 135 25a4.14 4.14 0 0 1 .64 0zM147.13 30.47a6.35 6.35 0 0 1-.09 1.16h-7.71a3.34 3.34 0 0 0 1.12 2.62 3.81 3.81 0 0 0 2.52.81 8.45 8.45 0 0 0 3.12-.55l.4 1.78a9.63 9.63 0 0 1-3.88.72 5.62 5.62 0 0 1-4.22-1.58 5.86 5.86 0 0 1-1.53-4.25 6.59 6.59 0 0 1 1.43-4.35 4.89 4.89 0 0 1 4-1.85 4.3 4.3 0 0 1 3.78 1.85 6.25 6.25 0 0 1 1.06 3.64zm-2.45-.67a3.43 3.43 0 0 0-.5-2 2.23 2.23 0 0 0-2-1.07 2.43 2.43 0 0 0-2 1 3.84 3.84 0 0 0-.76 2zM59.08 10.9a3.94 3.94 0 0 1-1.28 3.2 5 5 0 0 1-3.35 1 14.11 14.11 0 0 1-1.85-.1V7.26a13.58 13.58 0 0 1 2.18-.17A4.68 4.68 0 0 1 57.9 8a3.66 3.66 0 0 1 1.18 2.9zm-1.33 0A2.91 2.91 0 0 0 57 8.82a2.89 2.89 0 0 0-2.14-.73 5 5 0 0 0-1 .08v5.89a7.84 7.84 0 0 0 .85 0 3 3 0 0 0 2.24-.8 3.25 3.25 0 0 0 .8-2.32zM66.13 12.14a3.11 3.11 0 0 1-.74 2.15 2.68 2.68 0 0 1-2.08.87 2.57 2.57 0 0 1-2-.83 3.05 3.05 0 0 1-.74-2.09 3.11 3.11 0 0 1 .77-2.17 2.65 2.65 0 0 1 2.06-.84 2.62 2.62 0 0 1 2 .83 3 3 0 0 1 .73 2.08zm-1.3 0a2.65 2.65 0 0 0-.34-1.35 1.31 1.31 0 0 0-2.29 0 2.62 2.62 0 0 0-.34 1.38 2.5 2.5 0 0 0 .34 1.34 1.28 1.28 0 0 0 2.27 0 2.49 2.49 0 0 0 .36-1.33zM75.6 9.35L73.82 15h-1.16l-.73-2.47a18.14 18.14 0 0 1-.46-1.83 12.9 12.9 0 0 1-.47 1.86L70.21 15H69l-1.63-5.65h1.3l.64 2.7c.15.64.28 1.25.38 1.82.09-.47.25-1.08.47-1.81L71 9.35h1l.79 2.65c.19.65.34 1.27.46 1.87.09-.58.22-1.2.39-1.87l.69-2.65zM82.14 15h-1.26v-3.22c0-1-.38-1.51-1.15-1.51a1.14 1.14 0 0 0-.91.42 1.46 1.46 0 0 0-.35 1V15h-1.26v-4-1.62h1.11l.06.88a1.76 1.76 0 0 1 .62-.71 2.16 2.16 0 0 1 1.14-.32 1.84 1.84 0 0 1 1.33.51 2.53 2.53 0 0 1 .65 1.89zM85.62 15h-1.26V6.74h1.26zM93.05 12.14a3.11 3.11 0 0 1-.75 2.15 2.65 2.65 0 0 1-2.08.87 2.56 2.56 0 0 1-2-.83 3.05 3.05 0 0 1-.74-2.09 3.11 3.11 0 0 1 .77-2.17 2.9 2.9 0 0 1 4.07 0 3 3 0 0 1 .73 2.07zm-1.31 0a2.56 2.56 0 0 0-.34-1.35 1.23 1.23 0 0 0-1.13-.67 1.27 1.27 0 0 0-1.16.67 2.71 2.71 0 0 0-.33 1.38 2.59 2.59 0 0 0 .33 1.34 1.28 1.28 0 0 0 1.15.68 1.26 1.26 0 0 0 1.13-.69 2.48 2.48 0 0 0 .35-1.32zM99.16 15H98l-.1-.66a2 2 0 0 1-1.66.79 1.73 1.73 0 0 1-1.3-.52 1.63 1.63 0 0 1-.44-1.15 1.76 1.76 0 0 1 .87-1.59 4.48 4.48 0 0 1 2.45-.54v-.11c0-.74-.39-1.12-1.18-1.12a2.64 2.64 0 0 0-1.48.42l-.26-.83a3.71 3.71 0 0 1 1.95-.49c1.48 0 2.23.79 2.23 2.35v2.09a9.62 9.62 0 0 0 .08 1.36zm-1.31-1.95v-.85c-1.39 0-2.09.36-2.09 1.14A.87.87 0 0 0 96 14a.89.89 0 0 0 .62.22 1.28 1.28 0 0 0 .77-.26 1.07 1.07 0 0 0 .44-.67 1.38 1.38 0 0 0 .02-.21zM106.33 15h-1.12l-.06-.91a1.9 1.9 0 0 1-1.82 1 2.13 2.13 0 0 1-1.71-.81 3.15 3.15 0 0 1-.68-2.09 3.3 3.3 0 0 1 .74-2.23 2.27 2.27 0 0 1 1.75-.8A1.71 1.71 0 0 1 105 10V6.74h1.26v6.76c.03.55.04 1.06.07 1.5zm-1.3-2.4v-.94a2 2 0 0 0 0-.4 1.43 1.43 0 0 0-.46-.77 1.24 1.24 0 0 0-.84-.31 1.29 1.29 0 0 0-1.11.57 2.37 2.37 0 0 0-.41 1.43 2.25 2.25 0 0 0 .39 1.37 1.32 1.32 0 0 0 1.11.56 1.21 1.21 0 0 0 1-.47 1.52 1.52 0 0 0 .29-1.01zM117.13 12.14a3.11 3.11 0 0 1-.75 2.15 2.65 2.65 0 0 1-2.08.87 2.54 2.54 0 0 1-2-.83 3 3 0 0 1-.74-2.09 3.11 3.11 0 0 1 .76-2.17 2.66 2.66 0 0 1 2.07-.84 2.62 2.62 0 0 1 2 .83 3 3 0 0 1 .74 2.08zm-1.31 0a2.56 2.56 0 0 0-.34-1.35 1.23 1.23 0 0 0-1.13-.67 1.27 1.27 0 0 0-1.16.67 2.71 2.71 0 0 0-.34 1.38 2.59 2.59 0 0 0 .34 1.34 1.28 1.28 0 0 0 1.15.68 1.26 1.26 0 0 0 1.13-.69 2.57 2.57 0 0 0 .35-1.32zM123.92 15h-1.27v-3.22c0-1-.38-1.51-1.14-1.51a1.12 1.12 0 0 0-.91.42 1.46 1.46 0 0 0-.35 1V15H119v-4-1.62h1.11l.06.88a1.86 1.86 0 0 1 .66-.68 2.13 2.13 0 0 1 1.14-.32 1.82 1.82 0 0 1 1.32.51 2.5 2.5 0 0 1 .66 1.89zM132.41 10.3H131v2.75c0 .7.25 1 .74 1a2.28 2.28 0 0 0 .56 0V15a2.71 2.71 0 0 1-1 .14 1.52 1.52 0 0 1-1.17-.45 2.24 2.24 0 0 1-.42-1.53V10.3H129v-1h.83v-1l1.17-.36v1.41h1.39v1zM139.09 15h-1.26v-3.2q0-1.53-1.14-1.53a1.21 1.21 0 0 0-1.21.89 1.44 1.44 0 0 0-.06.45V15h-1.26V6.74h1.26v3.43a1.88 1.88 0 0 1 1.7-.94 1.73 1.73 0 0 1 1.3.52 2.55 2.55 0 0 1 .64 1.9zM146 11.92a2.94 2.94 0 0 1-.05.57h-3.79a1.69 1.69 0 0 0 .55 1.29 1.9 1.9 0 0 0 1.24.39 4.17 4.17 0 0 0 1.53-.26l.2.87a4.65 4.65 0 0 1-1.91.35 2.77 2.77 0 0 1-2.07-.77 2.89 2.89 0 0 1-.75-2.09 3.26 3.26 0 0 1 .7-2.14 2.43 2.43 0 0 1 2-.91 2.13 2.13 0 0 1 1.86.91 3 3 0 0 1 .49 1.79zm-1.21-.33a1.73 1.73 0 0 0-.24-1 1.11 1.11 0 0 0-1-.52 1.19 1.19 0 0 0-1 .51 1.93 1.93 0 0 0-.38 1z"/></g></g></symbol><symbol id="playstore" viewBox="0 0 162.13 47.43"><title>playstore</title><g id="Layer_2" data-name="Layer 2"><g id="Layer_1-2" data-name="Layer 1"><rect class="cls-1" width="162.13" height="47.43" rx="6.41" ry="6.41"/><g id="_Group_" data-name="&lt;Group&gt;"><path id="_Compound_Path_" data-name="&lt;Compound Path&gt;" class="cls-2" d="M54.66 13.23a3.16 3.16 0 0 1-.87 2.34 3.38 3.38 0 0 1-2.58 1 3.6 3.6 0 0 1-3.65-3.67 3.62 3.62 0 0 1 3.65-3.67 3.57 3.57 0 0 1 1.44.3 2.81 2.81 0 0 1 1.1.78l-.62.62a2.37 2.37 0 0 0-1.92-.83 2.63 2.63 0 0 0-1.92.78 2.67 2.67 0 0 0-.81 2 2.72 2.72 0 0 0 2.73 2.81 2.64 2.64 0 0 0 2-.79 2.18 2.18 0 0 0 .59-1.42h-2.59v-.78h3.4a3.27 3.27 0 0 1 .05.53z"/><path id="_Compound_Path_2" data-name="&lt;Compound Path&gt;" class="cls-2" d="M60.06 10.29h-3.2v2.23h2.88v.84h-2.88v2.23h3.2v.87H56v-7h4.1z"/><path id="_Compound_Path_3" data-name="&lt;Compound Path&gt;" class="cls-2" d="M63.87 16.46H63v-6.17h-2v-.86h4.83v.86h-2z"/><path id="_Compound_Path_4" data-name="&lt;Compound Path&gt;" class="cls-2" d="M69.32 16.46v-7h.9v7z"/><path id="_Compound_Path_5" data-name="&lt;Compound Path&gt;" class="cls-2" d="M74.23 16.46h-.9v-6.17h-2v-.86h4.83v.86h-2z"/><path id="_Compound_Path_6" data-name="&lt;Compound Path&gt;" class="cls-2" d="M85.33 15.55a3.66 3.66 0 0 1-5.15 0 3.6 3.6 0 0 1-1-2.61 3.58 3.58 0 0 1 1-2.6 3.63 3.63 0 0 1 5.15 0 3.6 3.6 0 0 1 1 2.6 3.61 3.61 0 0 1-1 2.61zM80.85 15a2.69 2.69 0 0 0 3.81 0 2.73 2.73 0 0 0 .79-2 2.73 2.73 0 0 0-.79-2 2.72 2.72 0 0 0-3.81 0 2.76 2.76 0 0 0-.78 2 2.76 2.76 0 0 0 .78 2z"/><path id="_Compound_Path_7" data-name="&lt;Compound Path&gt;" class="cls-2" d="M87.63 16.46v-7h1.1l3.42 5.46V9.43h.9v7h-.94l-3.57-5.74v5.74z"/></g><path id="_Compound_Path_8" data-name="&lt;Compound Path&gt;" class="cls-3" d="M78.92 26.7a5 5 0 1 0 5 5 4.92 4.92 0 0 0-5-5zm0 8a3 3 0 1 1 2.81-3 2.88 2.88 0 0 1-2.81 3zM68 26.7a5 5 0 1 0 5 5 4.91 4.91 0 0 0-5-5zm0 8a3 3 0 1 1 2.81-3 2.89 2.89 0 0 1-2.81 3zm-13-6.47v2.12h5.1A4.47 4.47 0 0 1 59 33a5.21 5.21 0 0 1-4 1.55 5.62 5.62 0 0 1 0-11.24 5.37 5.37 0 0 1 3.81 1.51l1.49-1.49a7.35 7.35 0 0 0-5.3-2.14 7.74 7.74 0 1 0 0 15.48 7.1 7.1 0 0 0 5.4-2.17 7 7 0 0 0 1.83-4.95 6.53 6.53 0 0 0-.12-1.32zm53.06 1.64a4.63 4.63 0 0 0-4.26-3.17 4.73 4.73 0 0 0-4.7 5 4.87 4.87 0 0 0 4.94 5 4.94 4.94 0 0 0 4.15-2.21l-1.69-1.13a2.85 2.85 0 0 1-2.46 1.37 2.53 2.53 0 0 1-2.41-1.51l6.66-2.75zm-6.79 1.66a2.73 2.73 0 0 1 2.6-2.9 1.91 1.91 0 0 1 1.85 1.06zm-5.42 4.83h2.19V21.72h-2.15zm-3.58-8.54h-.08a3.43 3.43 0 0 0-2.62-1.12 5 5 0 0 0 0 10 3.37 3.37 0 0 0 2.62-1.14h.08v.72c0 1.91-1 2.93-2.66 2.93a2.76 2.76 0 0 1-2.51-1.78l-1.9.79a4.73 4.73 0 0 0 4.41 3c2.57 0 4.74-1.51 4.74-5.19V27h-2.04zM89.8 34.7a3 3 0 0 1 0-6 2.8 2.8 0 0 1 2.66 3 2.78 2.78 0 0 1-2.66 3zm28.55-13h-5.23v14.66h2.18v-5.54h3a4.56 4.56 0 1 0 0-9.1zm.06 7.06h-3.11v-5h3.11a2.51 2.51 0 1 1 0 5zm13.51-2.1a4.08 4.08 0 0 0-3.9 2.24l1.94.81a2.06 2.06 0 0 1 2-1.08 2.11 2.11 0 0 1 2.3 1.89v.15a4.78 4.78 0 0 0-2.28-.57c-2.09 0-4.22 1.15-4.22 3.3a3.39 3.39 0 0 0 3.64 3.22 3.09 3.09 0 0 0 2.79-1.43h.07v1.13h2.11v-5.59c-.01-2.6-1.95-4.05-4.45-4.05zm-.27 8c-.71 0-1.71-.36-1.71-1.24 0-1.13 1.24-1.57 2.31-1.57a3.92 3.92 0 0 1 2 .49 2.65 2.65 0 0 1-2.6 2.36zM144 27l-2.5 6.34h-.08L138.87 27h-2.36l3.9 8.87-2.22 4.93h2.28l6-13.8zm-19.68 9.36h2.19V21.72h-2.19z"/><g id="_Group_2" data-name="&lt;Group&gt;"><path id="_Path_" data-name="&lt;Path&gt;" class="cls-4" d="M11.35 10.06a2.34 2.34 0 0 0-.54 1.64v25.9a2.35 2.35 0 0 0 .54 1.65l.09.08 14.5-14.5v-.35L11.44 10z"/><path id="_Path_2" data-name="&lt;Path&gt;" class="cls-5" d="M30.78 29.66l-4.84-4.83v-.35l4.84-4.83.11.06L36.62 23c1.64.93 1.64 2.45 0 3.39l-5.73 3.21z"/><path id="_Path_3" data-name="&lt;Path&gt;" class="cls-6" d="M30.89 29.6l-4.95-5-14.59 14.65a1.9 1.9 0 0 0 2.43.07l17.11-9.72"/><path id="_Path_4" data-name="&lt;Path&gt;" class="cls-7" d="M30.89 19.71L13.78 10a1.9 1.9 0 0 0-2.43.07l14.59 14.58z"/><g id="_Group_3" data-name="&lt;Group&gt;"><path id="_Path_5" data-name="&lt;Path&gt;" class="cls-8" d="M30.78 29.49l-17 9.66a1.94 1.94 0 0 1-2.34 0l-.09.09.09.08a1.93 1.93 0 0 0 2.34 0l17.11-9.72z"/><path id="_Path_6" data-name="&lt;Path&gt;" class="cls-9" d="M11.35 39.08a2.35 2.35 0 0 1-.54-1.65v.17a2.35 2.35 0 0 0 .54 1.65l.09-.09z"/></g><path id="_Path_7" data-name="&lt;Path&gt;" class="cls-9" d="M36.62 26.17l-5.84 3.32.11.11 5.73-3.26a2 2 0 0 0 1.23-1.69 2.18 2.18 0 0 1-1.23 1.52z"/><path id="_Path_8" data-name="&lt;Path&gt;" class="cls-10" d="M13.78 10.16l22.84 13a2.22 2.22 0 0 1 1.23 1.52A2.06 2.06 0 0 0 36.62 23L13.78 10c-1.63-.93-3-.16-3 1.71v.18c.03-1.89 1.37-2.66 3-1.73z"/></g></g></g></symbol></svg>