<?xml version="1.0" encoding="utf-8"?>
<!-- Generator: Adobe Illustrator 22.0.1, SVG Export Plug-In . SVG Version: 6.00 Build 0)  -->
<svg version="1.1" id="Layer_1" xmlns="http://www.w3.org/2000/svg" xmlns:xlink="http://www.w3.org/1999/xlink" x="0px" y="0px"
	 viewBox="0 0 58.2 58.2" style="enable-background:new 0 0 58.2 58.2;" xml:space="preserve">
<style type="text/css">
	.st0{fill:#CCDEFF;}
	.st1{clip-path:url(#SVGID_2_);}
	.st2{clip-path:url(#SVGID_4_);}
	.st3{clip-path:url(#SVGID_6_);}
	.st4{clip-path:url(#SVGID_8_);}
</style>
<title>twitter</title>
<title>instagram</title>
<g id="Layer_2_2_">
	<g id="Layer_1-2_1_">
		<path class="st0" d="M25.8,0.2C10,2.3-1.2,16.7,0.9,32.5c0.1,0.9,0.3,1.8,0.5,2.7c0,0,0,0,0,0.1c0.2,0.5,0.7,0.7,1.1,0.6
			c0.5-0.1,0.8-0.6,0.7-1.2c-3.3-14.5,5.7-29,20.2-32.3s29,5.7,32.3,20.2c3.3,14.5-5.7,29-20.2,32.3c-10.8,2.5-22-1.9-28.3-11.1
			c-0.3-0.5-0.9-0.6-1.4-0.3c0,0,0,0,0,0C5.4,44,5.3,44.6,5.6,45c8.9,13.2,26.9,16.6,40,7.6s16.6-26.9,7.6-40C47.9,4.8,39,0,29.5,0
			C28.2,0,27,0.1,25.8,0.2"/>
		<g>
			<defs>
				<path id="SVGID_1_" d="M25.8,0.2C10,2.3-1.2,16.7,0.9,32.5c0.1,0.9,0.3,1.8,0.5,2.7c0,0,0,0,0,0.1c0.2,0.5,0.7,0.7,1.1,0.6
					c0.5-0.1,0.8-0.6,0.7-1.2c-3.3-14.5,5.7-29,20.2-32.3s29,5.7,32.3,20.2c3.3,14.5-5.7,29-20.2,32.3c-10.8,2.5-22-1.9-28.3-11.1
					c-0.3-0.5-0.9-0.6-1.4-0.3c0,0,0,0,0,0C5.4,44,5.3,44.6,5.6,45c8.9,13.2,26.9,16.6,40,7.6s16.6-26.9,7.6-40
					C47.9,4.8,39,0,29.5,0C28.2,0,27,0.1,25.8,0.2"/>
			</defs>
			<clipPath id="SVGID_2_">
				<use xlink:href="#SVGID_1_"  style="overflow:visible;"/>
			</clipPath>
			<g class="st1">
				
					<rect x="-2.9" y="-3.4" transform="matrix(0.1026 -0.9947 0.9947 0.1026 -2.8282 55.229)" class="st0" width="64.2" height="65.2"/>
			</g>
		</g>
		<path class="st0" d="M19.7,35.7V21.9c0-1.6,1.4-2.9,3-2.9h13.4c1.6,0,3,1.3,3,2.9v13.8c0,1.6-1.4,2.9-3,2.9H22.7
			C21,38.6,19.7,37.3,19.7,35.7 M22.7,17c-2.7,0-5,2.2-5,4.9v13.8c0,2.7,2.3,4.9,5,4.9h13.4c2.7,0,5-2.2,5-4.9V21.9
			c0-2.7-2.3-4.9-5-4.9L22.7,17z"/>
		<g>
			<defs>
				<path id="SVGID_3_" d="M19.7,35.7V21.9c0-1.6,1.4-2.9,3-2.9h13.4c1.6,0,3,1.3,3,2.9v13.8c0,1.6-1.4,2.9-3,2.9H22.7
					C21,38.6,19.7,37.3,19.7,35.7 M22.7,17c-2.7,0-5,2.2-5,4.9v13.8c0,2.7,2.3,4.9,5,4.9h13.4c2.7,0,5-2.2,5-4.9V21.9
					c0-2.7-2.3-4.9-5-4.9L22.7,17z"/>
			</defs>
			<clipPath id="SVGID_4_">
				<use xlink:href="#SVGID_3_"  style="overflow:visible;"/>
			</clipPath>
			<g class="st2">
				
					<rect x="13.9" y="13.3" transform="matrix(0.3931 -0.9195 0.9195 0.3931 -8.6384 44.4743)" class="st0" width="31" height="30.9"/>
			</g>
		</g>
		<path class="st0" d="M25.3,28.8c0-2.3,1.8-4.1,4.1-4.1c2.3,0,4.1,1.8,4.1,4.1s-1.8,4.1-4.1,4.1c0,0,0,0,0,0
			C27.1,32.9,25.3,31.1,25.3,28.8 M23.2,28.8c0,3.4,2.8,6.1,6.1,6.1c3.4,0,6.1-2.8,6.1-6.1c0-3.4-2.8-6.1-6.1-6.1l0,0
			C26,22.6,23.2,25.4,23.2,28.8"/>
		<g>
			<defs>
				<path id="SVGID_5_" d="M25.3,28.8c0-2.3,1.8-4.1,4.1-4.1c2.3,0,4.1,1.8,4.1,4.1s-1.8,4.1-4.1,4.1c0,0,0,0,0,0
					C27.1,32.9,25.3,31.1,25.3,28.8 M23.2,28.8c0,3.4,2.8,6.1,6.1,6.1c3.4,0,6.1-2.8,6.1-6.1c0-3.4-2.8-6.1-6.1-6.1l0,0
					C26,22.6,23.2,25.4,23.2,28.8"/>
			</defs>
			<clipPath id="SVGID_6_">
				<use xlink:href="#SVGID_5_"  style="overflow:visible;"/>
			</clipPath>
			<g class="st3">
				
					<rect x="21.3" y="20.7" transform="matrix(0.3931 -0.9195 0.9195 0.3931 -8.6367 44.4838)" class="st0" width="16.1" height="16.1"/>
			</g>
		</g>
		<path class="st0" d="M34.5,22.3c0,0.8,0.6,1.4,1.4,1.4c0.8,0,1.4-0.7,1.4-1.4c0-0.8-0.6-1.4-1.4-1.4
			C35.2,20.9,34.5,21.5,34.5,22.3"/>
		<g>
			<defs>
				<path id="SVGID_7_" d="M34.5,22.3c0,0.8,0.6,1.4,1.4,1.4c0.8,0,1.4-0.7,1.4-1.4c0-0.8-0.6-1.4-1.4-1.4
					C35.2,20.9,34.5,21.5,34.5,22.3"/>
			</defs>
			<clipPath id="SVGID_8_">
				<use xlink:href="#SVGID_7_"  style="overflow:visible;"/>
			</clipPath>
			<g class="st4">
				
					<rect x="34.1" y="20.5" transform="matrix(0.3931 -0.9195 0.9195 0.3931 1.2846 46.6197)" class="st0" width="3.8" height="3.8"/>
			</g>
		</g>
	</g>
</g>
</svg>
