<svg xmlns="http://www.w3.org/2000/svg" xmlns:xlink="http://www.w3.org/1999/xlink" viewBox="0 0 155.94 41.98"><defs><style>.cls-1{fill:none;}.cls-2{fill:#fff;}.cls-3{fill:url(#linear-gradient);}.cls-4{fill:url(#linear-gradient-2);}.cls-5{clip-path:url(#clip-path);}.cls-6{fill:url(#linear-gradient-3);}.cls-7{clip-path:url(#clip-path-2);}.cls-8{fill:url(#linear-gradient-4);}</style><linearGradient id="linear-gradient" x1="10.79" y1="-1.15" x2="10.79" y2="39.47" gradientUnits="userSpaceOnUse"><stop offset="0" stop-color="#fff"/><stop offset="0.5" stop-color="#e2e1e1"/><stop offset="0.52" stop-color="#dbdada"/><stop offset="0.63" stop-color="#c3c2c2"/><stop offset="0.74" stop-color="#b1b1b0"/><stop offset="0.86" stop-color="#a6a6a5"/><stop offset="1" stop-color="#a3a3a2"/></linearGradient><linearGradient id="linear-gradient-2" x1="24.6" y1="15.49" x2="40.69" y2="41.28" gradientUnits="userSpaceOnUse"><stop offset="0" stop-color="#fff"/><stop offset="0.5" stop-color="#e2e1e1"/><stop offset="1" stop-color="#a3a3a2"/></linearGradient><clipPath id="clip-path"><path class="cls-1" d="M40.8,35.7l-1.5-3.16c-.61-1.22-1.55-1.44-2.94-1.11a7.23,7.23,0,0,1-.88.11A3.67,3.67,0,0,1,32,29.38l-2.77-4.94L36,15c1.61-2.28.72-4.05-2.05-4.05H28.71a4.12,4.12,0,0,0-3.93,2.22l-5.7,9.4v0a5.3,5.3,0,0,0,0,4.76l2.53,5.77c2.6,5.77,6.37,7.6,11.08,7.6a14.38,14.38,0,0,0,7-1.83A2.27,2.27,0,0,0,40.8,35.7Z"/></clipPath><linearGradient id="linear-gradient-3" x1="38.52" y1="10.29" x2="19.43" y2="22.6" xlink:href="#linear-gradient-2"/><clipPath id="clip-path-2"><rect class="cls-1" x="5.08" width="11.42" height="40.08" rx="3.33" ry="3.33"/></clipPath><linearGradient id="linear-gradient-4" x1="8.49" y1="8.71" x2="8.49" y2="42.75" xlink:href="#linear-gradient-2"/></defs><title>Logo</title><g id="Layer_2" data-name="Layer 2"><g id="Layer_1-2" data-name="Layer 1"><path class="cls-2" d="M59.75,32.57,55.1,26.91v8.18a.54.54,0,0,1-.59.58h-.58a.52.52,0,0,1-.58-.58V11.6a.54.54,0,0,1,.58-.58h.58a.53.53,0,0,1,.59.58V26.23L62.38,19a.85.85,0,0,1,.69-.31h.85c.48,0,.65.35.35.69l-7.33,7.23,4.25,5c1.06,1.27,2.36,2.8,4,2.8A4.53,4.53,0,0,0,67,34a.33.33,0,0,1,.52.14l.31.58c.1.24,0,.51-.38.71a5.28,5.28,0,0,1-2.4.62C62.42,36.05,60.81,33.8,59.75,32.57Z"/><path class="cls-2" d="M68.41,27.18c0-4.81,3.18-8.83,8.55-8.83a7.8,7.8,0,0,1,7.36,4.5V19.3a.53.53,0,0,1,.55-.58h.61a.53.53,0,0,1,.59.58V35.09a.54.54,0,0,1-.59.58h-.61a.51.51,0,0,1-.55-.58V31.55A7.74,7.74,0,0,1,77,36.05C71.76,36.05,68.41,32.13,68.41,27.18Zm15.94,0a7,7,0,0,0-7.22-7.26c-4.45,0-7,3.31-7,7.26s2.64,7.33,7,7.33A7,7,0,0,0,84.35,27.18Z"/><path class="cls-2" d="M90.48,33a.47.47,0,0,1,.34-.71l.51-.17c.31-.11.52,0,.72.3a4.71,4.71,0,0,0,4.18,2.12c2.12,0,3.93-1.3,3.93-3.28,0-1.43-1-2.45-2.7-3l-2.57-.82c-2.15-.65-3.9-1.91-3.9-4.33s1.88-4.74,5.24-4.74a5.06,5.06,0,0,1,4.65,2.73c.17.37,0,.61-.37.71l-.45.14a.57.57,0,0,1-.72-.31,3.58,3.58,0,0,0-3.08-1.74,3.3,3.3,0,0,0-3.59,3.18c0,1.7,1.4,2.52,2.74,2.93l2.6.82c2.8.85,3.83,2.55,3.83,4.46,0,3-2.63,4.78-5.65,4.78A6.25,6.25,0,0,1,90.48,33Z"/><path class="cls-2" d="M106.15,35.09V11.6a.54.54,0,0,1,.58-.58h.59a.52.52,0,0,1,.58.58v11a6.6,6.6,0,0,1,6.19-4.23c3.56,0,7,1.84,7,7.6v9.14a.54.54,0,0,1-.58.58h-.62a.51.51,0,0,1-.54-.58V26c0-4.7-2.78-6-5.38-6-2,0-6,1.46-6.12,7.09v8.08a.52.52,0,0,1-.58.58h-.59A.52.52,0,0,1,106.15,35.09Z"/><path class="cls-2" d="M127.09,30.46V20.16h-2.63a.35.35,0,0,1-.38-.38V19.1a.35.35,0,0,1,.38-.38h2.63l.38-4.91a.5.5,0,0,1,.51-.47h.31c.34,0,.52.17.52.47v4.91H134c.28,0,.38.14.38.38v.68c0,.24-.1.38-.38.38h-5.23v10.4c0,3.24,1.54,3.95,3,3.95a2.67,2.67,0,0,0,2.88-2.69,2.72,2.72,0,0,0-.07-.61c-.07-.28,0-.41.31-.41h.78a.42.42,0,0,1,.45.3,4.88,4.88,0,0,1,.1.89c0,2.29-1.61,4.06-4.48,4.06C129.49,36.05,127.09,35,127.09,30.46Z"/><path class="cls-2" d="M138.28,27.18c0-4.81,3.19-8.83,8.56-8.83a7.8,7.8,0,0,1,7.36,4.5V19.3a.53.53,0,0,1,.55-.58h.61a.52.52,0,0,1,.58.58V35.09a.54.54,0,0,1-.58.58h-.61a.51.51,0,0,1-.55-.58V31.55a7.75,7.75,0,0,1-7.29,4.5C141.64,36.05,138.28,32.13,138.28,27.18Zm15.95,0A7,7,0,0,0,147,19.92c-4.45,0-7,3.31-7,7.26s2.63,7.33,7,7.33A7,7,0,0,0,154.23,27.18Z"/><rect class="cls-3" x="5.08" width="11.42" height="40.08" rx="3.33" ry="3.33"/><path class="cls-4" d="M40.8,35.7l-1.5-3.16c-.61-1.22-1.55-1.44-2.94-1.11a7.23,7.23,0,0,1-.88.11A3.67,3.67,0,0,1,32,29.38l-2.77-4.94L36,15c1.61-2.28.72-4.05-2.05-4.05H28.71a4.12,4.12,0,0,0-3.93,2.22l-5.7,9.4v0a5.3,5.3,0,0,0,0,4.76l2.53,5.77c2.6,5.77,6.37,7.6,11.08,7.6a14.38,14.38,0,0,0,7-1.83A2.27,2.27,0,0,0,40.8,35.7Z"/><g class="cls-5"><path class="cls-6" d="M29.21,24.44C26,17.35,20,23.12,22.55,11.27c0,0,1.53-2.26,1.62-2.26l12.88.14,2,1.7.2,8-3.6,3.81Z"/></g><g class="cls-7"><path class="cls-8" d="M0,6.46c16.24,3.59,7.6,21.72,17,21.72V42H3.25Z"/></g></g></g></svg>