<svg xmlns="http://www.w3.org/2000/svg" viewBox="0 0 22.48 22.48"><defs><style>.cls-1{fill:#ccc;}</style></defs><title>parking</title><g id="Layer_2" data-name="Layer 2"><g id="Layer_1-2" data-name="Layer 1"><path class="cls-1" d="M9.61,17.69H6.53a.38.38,0,0,1-.37-.37V5.16a.38.38,0,0,1,.37-.37h4a10.32,10.32,0,0,1,2.51.27,5.25,5.25,0,0,1,1.8.81A3.38,3.38,0,0,1,16,7.21,4.22,4.22,0,0,1,16.32,9,4.51,4.51,0,0,1,16,10.62,3.52,3.52,0,0,1,15,12.05a5.07,5.07,0,0,1-1.87,1,9.25,9.25,0,0,1-2.77.35H10v4A.38.38,0,0,1,9.61,17.69ZM6.9,16.94H9.24V13a.37.37,0,0,1,.37-.37h.7a9.23,9.23,0,0,0,2.56-.31,4.8,4.8,0,0,0,1.6-.82,2.84,2.84,0,0,0,.84-1.14A3.7,3.7,0,0,0,15.57,9a3.46,3.46,0,0,0-.28-1.44,2.59,2.59,0,0,0-.86-1,4.36,4.36,0,0,0-1.55-.69,9.69,9.69,0,0,0-2.32-.25H6.9Zm3.31-5.69h-.6a.36.36,0,0,1-.37-.37V7.27a.37.37,0,0,1,.37-.37h.78a3.45,3.45,0,0,1,2.07.51A1.9,1.9,0,0,1,13.2,9a1.92,1.92,0,0,1-.83,1.72A3.9,3.9,0,0,1,10.21,11.25ZM10,10.51h.23A3.37,3.37,0,0,0,12,10.14,1.21,1.21,0,0,0,12.46,9,1.19,1.19,0,0,0,12,8a2.83,2.83,0,0,0-1.63-.36H10Z"/><path class="cls-1" d="M19.88,22.48H2.6A2.61,2.61,0,0,1,0,19.88V2.6A2.61,2.61,0,0,1,2.6,0H19.89a2.6,2.6,0,0,1,2.59,2.6V19.88A2.61,2.61,0,0,1,19.88,22.48ZM2.6.74A1.86,1.86,0,0,0,.74,2.6V19.88A1.85,1.85,0,0,0,2.6,21.73H19.88a1.86,1.86,0,0,0,1.86-1.85V2.6A1.85,1.85,0,0,0,19.89.74Z"/></g></g></svg>