<svg xmlns="http://www.w3.org/2000/svg" viewBox="0 0 23.37 22.96"><defs><style>.cls-1{fill:#ccc;}</style></defs><title>pets</title><g id="Layer_2" data-name="Layer 2"><g id="Layer_1-2" data-name="Layer 1"><path class="cls-1" d="M16.64,23a8.88,8.88,0,0,1-2.45-.63,9,9,0,0,0-4.89.06A9.39,9.39,0,0,1,6.94,23c-1.82,0-3.3-1.91-3.3-4.26,0-2.51,1.68-4.53,3.66-4.24L7.53,14a10.07,10.07,0,0,1,1.26-2,3.8,3.8,0,0,1,2.87-1.43,3.76,3.76,0,0,1,2.91,1.48A11.18,11.18,0,0,1,15.78,14c.11.19.24.42.32.54a2.48,2.48,0,0,1,.54-.06c1.82,0,3.31,1.92,3.31,4.27S18.46,23,16.64,23Zm-4.72-1.68a7.53,7.53,0,0,1,2.56.36,7.92,7.92,0,0,0,2.16.58c1.41,0,2.56-1.58,2.56-3.52s-1.15-3.53-2.56-3.53a2.07,2.07,0,0,0-.49.07c-.44.12-.67-.3-1-.93A10.42,10.42,0,0,0,14,12.58a3.07,3.07,0,0,0-2.34-1.21,3,3,0,0,0-2.3,1.17,9.86,9.86,0,0,0-1.18,1.85c-.28.54-.47.91-.86.83-1.58-.33-2.94,1.36-2.94,3.48,0,1.94,1.15,3.52,2.56,3.52A8.8,8.8,0,0,0,9,21.7,8.82,8.82,0,0,1,11.92,21.28ZM7.47,14.49h0Z"/><path class="cls-1" d="M3.66,14.85a2.91,2.91,0,0,1-1.35-.34A4.4,4.4,0,0,1,.22,11.86C-.43,9.72.41,7.52,2.1,7a2.77,2.77,0,0,1,2.19.2A4.4,4.4,0,0,1,6.38,9.8h0c.65,2.14-.19,4.34-1.88,4.91A2.69,2.69,0,0,1,3.66,14.85ZM3,7.55a1.81,1.81,0,0,0-.61.1C1,8.09.39,9.88.93,11.64a3.63,3.63,0,0,0,1.72,2.21A2,2,0,0,0,4.26,14c1.31-.44,2-2.24,1.41-4h0A3.63,3.63,0,0,0,4,7.81,2.19,2.19,0,0,0,3,7.55Z"/><path class="cls-1" d="M8.14,9.17a3.19,3.19,0,0,1-1.86-.62A5,5,0,0,1,4.35,5.26C4,2.79,5.21.49,7.16.13A3.17,3.17,0,0,1,9.53.7,5,5,0,0,1,11.46,4c.4,2.48-.86,4.78-2.81,5.13h0A2.94,2.94,0,0,1,8.14,9.17Zm.44-.41h0ZM7.68.83a2.56,2.56,0,0,0-.39,0c-1.55.29-2.54,2.21-2.2,4.28a4.17,4.17,0,0,0,1.62,2.8,2.34,2.34,0,0,0,1.81.45h0c1.55-.28,2.54-2.2,2.2-4.28A4.2,4.2,0,0,0,9.1,1.31,2.43,2.43,0,0,0,7.68.83Z"/><path class="cls-1" d="M19.71,14.85a2.69,2.69,0,0,1-.84-.14c-1.69-.57-2.53-2.77-1.88-4.91a4.4,4.4,0,0,1,2.09-2.65A2.77,2.77,0,0,1,21.27,7c1.69.57,2.53,2.77,1.88,4.91a4.36,4.36,0,0,1-2.09,2.65A3,3,0,0,1,19.71,14.85Zm.71-7.3a2.19,2.19,0,0,0-1,.26A3.63,3.63,0,0,0,17.7,10c-.54,1.75.1,3.55,1.41,4a2,2,0,0,0,1.61-.16,3.63,3.63,0,0,0,1.72-2.21c.54-1.76-.09-3.55-1.41-4h0A1.81,1.81,0,0,0,20.42,7.55Z"/><path class="cls-1" d="M15.25,9.19a3.07,3.07,0,0,1-.53,0h0c-2-.36-3.25-2.69-2.84-5.19A5,5,0,0,1,13.83.62,3.13,3.13,0,0,1,16.22.05c2,.35,3.25,2.68,2.84,5.19a5,5,0,0,1-1.95,3.32A3.23,3.23,0,0,1,15.25,9.19ZM15.7.74a2.53,2.53,0,0,0-1.45.49,4.32,4.32,0,0,0-1.64,2.84c-.34,2.11.66,4,2.24,4.34h0A2.43,2.43,0,0,0,16.69,8a4.3,4.3,0,0,0,1.64-2.83C18.67,3,17.67,1.06,16.09.78A1.72,1.72,0,0,0,15.7.74Z"/></g></g></svg>