<svg xmlns="http://www.w3.org/2000/svg" viewBox="0 0 21.65 22.74"><defs><style>.cls-1{fill:#ccc;}</style></defs><title>playarea</title><g id="Layer_2" data-name="Layer 2"><g id="Layer_1-2" data-name="Layer 1"><path class="cls-1" d="M10.9,3.92a2,2,0,1,1,2-2A2,2,0,0,1,10.9,3.92Zm0-3.18A1.22,1.22,0,1,0,12.12,2,1.22,1.22,0,0,0,10.9.74Z"/><path class="cls-1" d="M18.6,7.83a2,2,0,1,1,2-2A2,2,0,0,1,18.6,7.83Zm0-3.17a1.22,1.22,0,1,0,1.22,1.21A1.22,1.22,0,0,0,18.6,4.66Z"/><path class="cls-1" d="M18.56,19.23a2,2,0,1,1,2-2A2,2,0,0,1,18.56,19.23Zm0-3.18a1.22,1.22,0,1,0,0,2.43,1.22,1.22,0,0,0,0-2.43Z"/><path class="cls-1" d="M3.35,19.22a2,2,0,1,1,1.95-2A2,2,0,0,1,3.35,19.22Zm0-3.17a1.22,1.22,0,1,0,1.21,1.21A1.22,1.22,0,0,0,3.35,16.05Z"/><path class="cls-1" d="M3.29,7.75a2,2,0,1,1,2-1.95A2,2,0,0,1,3.29,7.75Zm0-3.17A1.22,1.22,0,1,0,3.29,7a1.22,1.22,0,0,0,0-2.43Z"/><path class="cls-1" d="M10.91,17.54a6.37,6.37,0,1,1,6.36-6.37A6.38,6.38,0,0,1,10.91,17.54Zm0-12a5.63,5.63,0,1,0,5.62,5.62A5.63,5.63,0,0,0,10.91,5.55Z"/><path class="cls-1" d="M10.88,17.43a.36.36,0,0,1-.37-.37V5.18a.36.36,0,0,1,.37-.37.37.37,0,0,1,.37.37V17.06A.37.37,0,0,1,10.88,17.43Z"/><path class="cls-1" d="M21.28,22.74h0L.37,22.53A.37.37,0,0,1,0,22.15a.37.37,0,0,1,.37-.36h0L21.29,22a.37.37,0,0,1,0,.74Z"/><path class="cls-1" d="M15.66,15.11a.39.39,0,0,1-.23-.07L5.93,7.91a.38.38,0,0,1,.45-.6l9.5,7.13A.37.37,0,0,1,16,15,.35.35,0,0,1,15.66,15.11Z"/><path class="cls-1" d="M6.19,15.15A.37.37,0,0,1,6,14.49L15.4,7.27a.37.37,0,1,1,.45.59L6.41,15.08A.38.38,0,0,1,6.19,15.15Z"/><path class="cls-1" d="M16.71,22.48a.37.37,0,0,1-.32-.18l-3.3-5.44a.36.36,0,0,1,.12-.51.37.37,0,0,1,.51.13L17,21.92a.38.38,0,0,1-.13.51A.32.32,0,0,1,16.71,22.48Z"/><path class="cls-1" d="M5.34,22.33a.45.45,0,0,1-.19,0A.38.38,0,0,1,5,21.77L8.08,16.6a.37.37,0,0,1,.64.38L5.66,22.15A.38.38,0,0,1,5.34,22.33Z"/></g></g></svg>