<!--?xml version="1.0" encoding="utf-8"?-->
<!-- Generator: Adobe Illustrator 22.1.0, SVG Export Plug-In . SVG Version: 6.00 Build 0)  -->
<svg version="1.1" id="Layer_1" xmlns="http://www.w3.org/2000/svg" xmlns:xlink="http://www.w3.org/1999/xlink" x="0px" y="0px" viewBox="0 0 855.9 900" style="" xml:space="preserve">
<style type="text/css">
	.st0{clip-path:url(#SVGID_2_);}
	.st1{fill:url(#SVGID_3_);stroke:#FFFFFF;stroke-width:5;stroke-miterlimit:10;}
	.st2{clip-path:url(#SVGID_5_);}
	.st3{fill:url(#SVGID_6_);stroke:#FFFFFF;stroke-width:5;stroke-miterlimit:10;}
</style>
<title>kashta_icon</title>
<g>
	<defs>
		<path id="SVGID_1_" d="M272.6,0c-6.2,7.8-11.9,16-17,24.5l-210,346.6v0.5c-13,24.2-20.7,54.5-20.7,87.4c0,33.4,7.9,64,21.2,88.2
			L139.1,760c25.5,56.4,54,102.6,85.4,140h631.3c0.4-14.1-3-28.9-9.8-44l-55.1-116.4c-22.5-44.9-57.2-53.1-108.3-40.8
			c-12.2,2-24.5,4.1-32.7,4.1c-40.9,0-85.8-8.2-128.7-79.7L419,441.3L670.3,91.9c24.8-35,33.5-66.8,27.8-91.9H272.6z" class="eXKKbuEx_0"></path>
	</defs>
	<clipPath id="SVGID_2_">
		<use xlink:href="#SVGID_1_" style="overflow:visible;"></use>
	</clipPath>
	<g class="st0">

			<linearGradient id="SVGID_3_" gradientUnits="userSpaceOnUse" x1="916.3701" y1="-3271.5696" x2="917.3701" y2="-3271.5696" gradientTransform="matrix(592.6858 950.3399 -950.3399 592.6858 -3651992.75 1068262.25)">
			<stop offset="0" style="stop-color:#FFFFFF"></stop>
			<stop offset="0.24" style="stop-color:#F4F3F3"></stop>
			<stop offset="0.5" style="stop-color:#E2E1E1"></stop>
			<stop offset="0.75" style="stop-color:#C4C4C3"></stop>
			<stop offset="1" style="stop-color:#A2A2A1"></stop>
		</linearGradient>
		<path class="st1 eXKKbuEx_1" d="M-379.3,252L623.4,-373.3L1260.4,648L257.7,1273.3Z"></path>
	</g>
	<use xlink:href="#SVGID_1_" style="overflow:visible;fill:none;stroke:#FFFFFF;stroke-width:5;stroke-miterlimit:10;"></use>
</g>
<g>
	<defs>
		<path id="SVGID_4_" d="M272.6,0c-6.2,7.8-11.9,16-17,24.5L157,187.3c32.3,125.8,175.7,62,262.1,254L670.3,91.9
			c24.8-35,33.5-66.8,27.8-91.9H272.6z" class="eXKKbuEx_2"></path>
	</defs>
	<clipPath id="SVGID_5_">
		<use xlink:href="#SVGID_4_" style="overflow:visible;"></use>
	</clipPath>
	<g class="st2">

			<linearGradient id="SVGID_6_" gradientUnits="userSpaceOnUse" x1="917.7223" y1="-3271.7305" x2="918.7223" y2="-3271.7305" gradientTransform="matrix(-703.2999 453.7673 -453.7673 -703.2999 -838369.375 -2717458.5)">
			<stop offset="0" style="stop-color:#FFFFFF"></stop>
			<stop offset="0.24" style="stop-color:#F4F3F3"></stop>
			<stop offset="0.5" style="stop-color:#E2E1E1"></stop>
			<stop offset="0.75" style="stop-color:#C4C4C3"></stop>
			<stop offset="1" style="stop-color:#A2A2A1"></stop>
		</linearGradient>
		<path class="st3 eXKKbuEx_3" d="M-44,129.7L543.1,-249.1L904.8,311.6L317.7,690.4Z"></path>
	</g>
	<use xlink:href="#SVGID_4_" style="overflow:visible;fill:none;stroke:#FFFFFF;stroke-width:5;stroke-miterlimit:10;"></use>
</g>
<style data-made-with="vivus-instant">.eXKKbuEx_0{stroke-dasharray:3305 3307;stroke-dashoffset:3306;animation:eXKKbuEx_draw 2000ms linear 0ms forwards;}.eXKKbuEx_1{stroke-dasharray:4771 4773;stroke-dashoffset:4772;animation:eXKKbuEx_draw 2000ms linear 333ms forwards;}.eXKKbuEx_2{stroke-dasharray:1553 1555;stroke-dashoffset:1554;animation:eXKKbuEx_draw 2000ms linear 666ms forwards;}.eXKKbuEx_3{stroke-dasharray:2732 2734;stroke-dashoffset:2733;animation:eXKKbuEx_draw 2000ms linear 1000ms forwards;}@keyframes eXKKbuEx_draw{100%{stroke-dashoffset:0;}}@keyframes eXKKbuEx_fade{0%{stroke-opacity:1;}94.44444444444444%{stroke-opacity:1;}100%{stroke-opacity:0;}}
	@keyframes FillIn {
	  from { fill-opacity: 0; }
	  to { fill-opacity: 1; }
	}
</style></svg>
