<?xml version="1.0" encoding="utf-8"?>
<!-- Generator: Adobe Illustrator 22.0.1, SVG Export Plug-In . SVG Version: 6.00 Build 0)  -->
<svg version="1.1" id="Layer_1" xmlns="http://www.w3.org/2000/svg" xmlns:xlink="http://www.w3.org/1999/xlink" x="0px" y="0px"
	 viewBox="0 0 58.2 58.2" style="enable-background:new 0 0 58.2 58.2;" xml:space="preserve">
<style type="text/css">
	.st0{fill:#CCDEFF;}
	.st1{clip-path:url(#SVGID_2_);}
	.st2{clip-path:url(#SVGID_4_);}
</style>
<title>twitter</title>
<g id="Layer_2_1_">
	<g id="Layer_1-2">
		<path class="st0" d="M19.4,1.9C4.4,7.4-3.2,24,2.3,38.9s22.1,22.6,37,17c8.1-3,14.4-9.4,17.2-17.6l0,0c0.1-0.5-0.1-1-0.6-1.1
			c-0.5-0.2-1.1,0.1-1.2,0.6c0,0,0,0,0,0c-4.9,14-20.3,21.4-34.3,16.5c-0.8-0.3-1.6-0.6-2.3-0.9C4.7,47.1-1.3,31.2,4.9,17.7
			S27.1-1.7,40.6,4.5c9.2,4.2,15.3,13.3,15.6,23.4c0,0.5,0.5,0.9,1,0.9c0.5,0,0.9-0.5,0.9-1l0,0C57.8,16.9,51.3,7.2,41.4,2.7
			C37.6,0.9,33.5,0,29.4,0C26,0,22.6,0.6,19.4,1.9"/>
		<g>
			<defs>
				<path id="SVGID_1_" d="M19.4,1.9C4.4,7.4-3.2,24,2.3,38.9s22.1,22.6,37,17c8.1-3,14.4-9.4,17.2-17.6l0,0c0.1-0.5-0.1-1-0.6-1.1
					c-0.5-0.2-1.1,0.1-1.2,0.6c0,0,0,0,0,0c-4.9,14-20.3,21.4-34.3,16.5c-0.8-0.3-1.6-0.6-2.3-0.9C4.7,47.1-1.3,31.2,4.9,17.7
					S27.1-1.7,40.6,4.5c9.2,4.2,15.3,13.3,15.6,23.4c0,0.5,0.5,0.9,1,0.9c0.5,0,0.9-0.5,0.9-1l0,0C57.8,16.9,51.3,7.2,41.4,2.7
					C37.6,0.9,33.5,0,29.4,0C26,0,22.6,0.6,19.4,1.9"/>
			</defs>
			<clipPath id="SVGID_2_">
				<use xlink:href="#SVGID_1_"  style="overflow:visible;"/>
			</clipPath>
			<g class="st1">
				
					<rect x="-9.8" y="-9.4" transform="matrix(0.9104 -0.4137 0.4137 0.9104 -9.5372 14.6034)" class="st0" width="77.5" height="77.5"/>
			</g>
		</g>
		<path class="st0" d="M32.5,19.5c-2.4,0.7-3.9,3.2-3.4,5.6c-3.8-0.2-7.4-2-9.9-4.9c-1.3,2.2-0.6,5,1.6,6.4c0,0-1.8-0.1-2.2-0.6
			c0,2.3,1.6,4.3,3.9,4.7c-0.7,0.2-1.5,0.3-2.2,0.2c0.7,1.9,2.5,3.2,4.5,3.2c-2.1,1.5-4.6,2.2-7.2,1.9c3,2,6.6,2.6,10.1,1.9l0.8-0.2
			c3.7-1.1,6.8-3.6,8.6-7.1c0.1-0.2,0.2-0.5,0.4-0.7c0.9-1.9,1.3-4.1,1.2-6.2c0.9-0.6,1.7-1.4,2.4-2.3c-0.8,0.4-1.7,0.6-2.6,0.7
			c0,0,1.8-1.5,1.9-2.7c-0.9,0.6-2,1-3,1.2c-0.9-1-2.2-1.5-3.5-1.5C33.3,19.3,32.9,19.4,32.5,19.5"/>
		<g>
			<defs>
				<path id="SVGID_3_" d="M32.5,19.5c-2.4,0.7-3.9,3.2-3.4,5.6c-3.8-0.2-7.4-2-9.9-4.9c-1.3,2.2-0.6,5,1.6,6.4c0,0-1.8-0.1-2.2-0.6
					c0,2.3,1.6,4.3,3.9,4.7c-0.7,0.2-1.5,0.3-2.2,0.2c0.7,1.9,2.5,3.2,4.5,3.2c-2.1,1.5-4.6,2.2-7.2,1.9c3,2,6.6,2.6,10.1,1.9
					l0.8-0.2c3.7-1.1,6.8-3.6,8.6-7.1c0.1-0.2,0.2-0.5,0.4-0.7c0.9-1.9,1.3-4.1,1.2-6.2c0.9-0.6,1.7-1.4,2.4-2.3
					c-0.8,0.4-1.7,0.6-2.6,0.7c0,0,1.8-1.5,1.9-2.7c-0.9,0.6-2,1-3,1.2c-0.9-1-2.2-1.5-3.5-1.5C33.3,19.3,32.9,19.4,32.5,19.5"/>
			</defs>
			<clipPath id="SVGID_4_">
				<use xlink:href="#SVGID_3_"  style="overflow:visible;"/>
			</clipPath>
			<g class="st2">
				
					<rect x="14.4" y="13.9" transform="matrix(0.4908 -0.8713 0.8713 0.4908 -10.7649 40.2451)" class="st0" width="29.2" height="30.8"/>
			</g>
		</g>
	</g>
</g>
</svg>
