<svg xmlns="http://www.w3.org/2000/svg" viewBox="0 0 56.46 26.17"><defs><style>.cls-1{fill:none;stroke:#ccc;stroke-miterlimit:10;}</style></defs><title>view</title><g id="Layer_2" data-name="Layer 2"><g id="Layer_1-2" data-name="Layer 1"><path class="cls-1" d="M12.32,25.67A11.8,11.8,0,0,1,.5,13.85,11.77,11.77,0,0,1,4,5.5,11.83,11.83,0,0,1,23.21,9.25a11.87,11.87,0,0,1,0,9.21,11.93,11.93,0,0,1-2.53,3.75,11.82,11.82,0,0,1-8.36,3.46Zm0-21.13a9.32,9.32,0,1,0,9.32,9.31A9.33,9.33,0,0,0,12.32,4.54Z"/><path class="cls-1" d="M44.15,25.67A11.82,11.82,0,0,1,33.26,9.25,11.61,11.61,0,0,1,35.79,5.5,11.82,11.82,0,1,1,52.5,22.21a11.77,11.77,0,0,1-8.35,3.46Zm0-21.13a9.32,9.32,0,1,0,9.32,9.31A9.33,9.33,0,0,0,44.15,4.54Z"/><path class="cls-1" d="M35.28,5a12.24,12.24,0,0,1,1.34-1.16H34.68a7.87,7.87,0,0,0-12.86,0h-2A12.24,12.24,0,0,1,21.18,5a12.57,12.57,0,0,1,2.69,13.74c-.09.21-.19.42-.29.62h.66a4.83,4.83,0,0,1,8,0h.62c-.1-.2-.19-.41-.28-.62A12.55,12.55,0,0,1,35.28,5Zm-7,1.15a1.82,1.82,0,1,1,1.82-1.82A1.82,1.82,0,0,1,28.25,6.14Z"/></g></g></svg>