<?xml version="1.0" encoding="utf-8"?>
<!-- Generator: Adobe Illustrator 22.0.1, SVG Export Plug-In . SVG Version: 6.00 Build 0)  -->
<svg version="1.1" id="Layer_1" xmlns="http://www.w3.org/2000/svg" xmlns:xlink="http://www.w3.org/1999/xlink" x="0px" y="0px"
	 viewBox="0 0 63.2 63.2" style="enable-background:new 0 0 63.2 63.2;" xml:space="preserve">
<style type="text/css">
	.st0{fill:#CCDEFF;}
	.st1{clip-path:url(#SVGID_2_);}
	.st2{clip-path:url(#SVGID_4_);}
</style>
<title>youtube</title>
<g id="Layer_2_1_">
	<g id="Layer_1-2">
		<path class="st0" d="M30.7,0C13.2,0.5-0.5,15.1,0,32.5s15.1,31.1,32.5,30.6C50,62.6,63.7,48,63.1,30.6c-0.3-9.4-4.8-18.2-12.2-24
			l0,0c-0.5-0.3-1.1-0.2-1.4,0.2c-0.3,0.5-0.3,1.1,0.2,1.5c12.8,10,15,28.4,5.1,41.2c-10,12.8-28.4,15-41.2,5.1
			c-12.8-10-15-28.4-5.1-41.2C16,3.9,28.5-0.1,40.1,3.4c0.6,0.2,1.1-0.2,1.3-0.7c0.2-0.6-0.2-1.2-0.7-1.3c-2.9-0.8-5.9-1.3-8.9-1.3
			h-1"/>
		<g>
			<defs>
				<path id="SVGID_1_" d="M30.7,0C13.2,0.5-0.5,15.1,0,32.5s15.1,31.1,32.5,30.6C50,62.6,63.7,48,63.1,30.6
					c-0.3-9.4-4.8-18.2-12.2-24l0,0c-0.5-0.3-1.1-0.2-1.4,0.2c-0.3,0.5-0.3,1.1,0.2,1.5c12.8,10,15,28.4,5.1,41.2
					c-10,12.8-28.4,15-41.2,5.1c-12.8-10-15-28.4-5.1-41.2C16,3.9,28.5-0.1,40.1,3.4c0.6,0.2,1.1-0.2,1.3-0.7
					c0.2-0.6-0.2-1.2-0.7-1.3c-2.9-0.8-5.9-1.3-8.9-1.3h-1"/>
			</defs>
			<clipPath id="SVGID_2_">
				<use xlink:href="#SVGID_1_"  style="overflow:visible;"/>
			</clipPath>
			<g class="st1">
				
					<rect x="-12.4" y="-12.3" transform="matrix(0.8334 -0.5527 0.5527 0.8334 -12.2245 22.7553)" class="st0" width="88" height="87.9"/>
			</g>
		</g>
		<path class="st0" d="M28.8,27.4l7.3,3.9l-7.3,3.9V27.4z M22.1,22.1c-2.2,0-4,1.8-4,4v11c0,2.2,1.8,4,4,4c0,0,0,0,0,0h19.1
			c2.2,0,4-1.8,4-4v-11c0-2.2-1.8-4-3.9-4c0,0,0,0,0,0H22.1z"/>
		<g>
			<defs>
				<path id="SVGID_3_" d="M28.8,27.4l7.3,3.9l-7.3,3.9V27.4z M22.1,22.1c-2.2,0-4,1.8-4,4v11c0,2.2,1.8,4,4,4c0,0,0,0,0,0h19.1
					c2.2,0,4-1.8,4-4v-11c0-2.2-1.8-4-3.9-4c0,0,0,0,0,0H22.1z"/>
			</defs>
			<clipPath id="SVGID_4_">
				<use xlink:href="#SVGID_3_"  style="overflow:visible;"/>
			</clipPath>
			<g class="st2">
				
					<rect x="15.1" y="15.8" transform="matrix(0.7977 -0.6031 0.6031 0.7977 -12.6166 25.4603)" class="st0" width="33" height="31.4"/>
			</g>
		</g>
	</g>
</g>
</svg>
